<?xml version="1.0" encoding="utf-8"?>
<!-- Generator: Adobe Illustrator 25.0.1, SVG Export Plug-In . SVG Version: 6.00 Build 0)  -->
<svg version="1.1" id="Layer_1" xmlns="http://www.w3.org/2000/svg" xmlns:xlink="http://www.w3.org/1999/xlink" x="0px" y="0px"
	 viewBox="0 0 24 24" enable-background="new 0 0 24 24" xml:space="preserve">
<path d="M21.0605469,5.8022461c-0.4711914-0.5336914-1.1489258-0.8393555-1.8603516-0.8393555H5.8487549l-0.1939697-2.328125
	C5.6396484,2.4516602,5.5253906,2.2919922,5.3574219,2.2182617L2.7216797,1.0625
	C2.4672852,0.9516602,2.1738281,1.0668945,2.0629883,1.3198242s0.0043945,0.5478516,0.2573242,0.6586914l2.362793,1.0361328
	l1.0620117,12.7456055c-1.1464844,0.3320312-1.796875,1.4067383-1.7539062,2.3520508C4.0302734,18.9829102,4.7114258,20,6.5,20h12
	c0.2763672,0,0.5-0.2236328,0.5-0.5S18.7763672,19,18.5,19h-12c-0.9326172,0-1.4829102-0.3398438-1.5097656-0.9326172
	c-0.027832-0.6166992,0.5019531-1.3271484,1.3354492-1.402832c0.0016479-0.0001221,0.0029297-0.0011597,0.0045776-0.0013428
	c0.0054932-0.0005493,0.0108643-0.0003662,0.0164185-0.0010986c3.4702148-0.4624023,6.4912109-1.027832,8.9794922-1.6801758
	c3.4116211-0.894043,5.8989258-3.7319336,6.3359375-7.2299805C21.7504883,7.0463867,21.53125,6.3354492,21.0605469,5.8022461z
	 M20.6699219,7.6279297c-0.3862305,3.0898438-2.5834961,5.5966797-5.5976562,6.3862305
	c-2.3202515,0.6085205-5.1323242,1.1380615-8.3375854,1.5811768L5.9320679,5.9628906h13.2681274
	c0.4248047,0,0.8295898,0.1826172,1.1103516,0.5009766C20.5917969,6.7822266,20.7226562,7.206543,20.6699219,7.6279297z"/>
<circle fill="#989898" cx="8" cy="22" r="1"/>
<circle fill="#989898" cx="16" cy="22" r="1"/>
</svg>
