<?xml version="1.0" encoding="utf-8"?>
<!-- Generator: Adobe Illustrator 25.0.1, SVG Export Plug-In . SVG Version: 6.00 Build 0)  -->
<svg version="1.1" id="Layer_1" xmlns="http://www.w3.org/2000/svg" xmlns:xlink="http://www.w3.org/1999/xlink" x="0px" y="0px"
	 viewBox="0 0 24 24" enable-background="new 0 0 24 24" xml:space="preserve">
<path fill="#989898" d="M12.5,10h-5C7.2236328,10,7,9.7763672,7,9.5S7.2236328,9,7.5,9h5C12.7763672,9,13,9.2236328,13,9.5
	S12.7763672,10,12.5,10z"/>
<path fill="#989898" d="M16.5,16h-9C7.2236328,16,7,15.7763672,7,15.5S7.2236328,15,7.5,15h9c0.2763672,0,0.5,0.2236328,0.5,0.5
	S16.7763672,16,16.5,16z"/>
<g>
</g>
<path d="M22.8935547,9.2509766c-0.0004272-0.0070801-0.0152245-0.2972803-0.03722-0.4415569
	c-0.2280807-1.4961362-1.6270599-3.3637929-2.9666862-4.7029743c-1.2860126-1.2855842-3.0440426-2.6273189-4.5170383-2.9303041
	C15.1661005,1.1336635,14.7578125,1.1079102,14.75,1.1074219C11.8496094,0.9223633,8.9287109,1.027832,6.0742188,1.421875
	C3.6669922,1.753418,1.7539062,3.6665039,1.421875,6.0742188C0.8740234,10.0415039,0.8798828,14.0673828,1.4375,18.0400391
	C1.765625,20.3745117,3.6259766,22.234375,5.9609375,22.5625C7.9648438,22.8442383,9.9824219,22.9848633,12,22.9848633
	s4.0351562-0.140625,6.0390625-0.4223633c2.3349609-0.328125,4.1953125-2.1879883,4.5234375-4.5224609
	C22.9697266,15.1459961,23.0810547,12.1889648,22.8935547,9.2509766z M21.829895,8.7353516
	c-0.9200439-0.0698242-1.7932129-0.1557617-2.6218872-0.2719727c-1.9257812-0.2709961-3.4013672-1.746582-3.671875-3.6713867
	c-0.1155396-0.8223267-0.2012329-1.696167-0.2712402-2.6212769c1.0338745,0.2555542,2.5213623,1.2473755,3.9177246,2.6432495
	C20.5810547,6.2114258,21.5744629,7.7008667,21.829895,8.7353516z M21.5722656,17.9003906
	c-0.2705078,1.9257812-1.7460938,3.4013672-3.671875,3.671875c-3.9150391,0.5498047-7.8837891,0.5498047-11.8007812,0
	c-1.9257812-0.2709961-3.4013672-1.746582-3.671875-3.6713867c-0.5449219-3.8813477-0.5498047-7.8139648-0.015625-11.6899414
	c0.2714844-1.9658203,1.8339844-3.527832,3.7988281-3.7988281c1.8984375-0.2617188,3.8261719-0.3935547,5.7587891-0.3935547
	c0.7597656,0,1.5195312,0.0205078,2.2792969,0.0610352c0.0732422,1.0170898,0.1708984,1.9536133,0.296875,2.8515625
	c0.328125,2.3344727,2.1884766,4.1943359,4.5234375,4.5224609c0.9042969,0.1269531,1.8417969,0.2250977,2.8515625,0.2978516
	C22.0664062,12.4780273,21.9492188,15.2172852,21.5722656,17.9003906z"/>
</svg>
