<?xml version="1.0" encoding="utf-8"?>
<!-- Generator: Adobe Illustrator 25.0.1, SVG Export Plug-In . SVG Version: 6.00 Build 0)  -->
<svg version="1.1" id="Layer_1" xmlns="http://www.w3.org/2000/svg" xmlns:xlink="http://www.w3.org/1999/xlink" x="0px" y="0px"
	 viewBox="0 0 24 24" enable-background="new 0 0 24 24" xml:space="preserve">
<path fill="#989898" d="M19.1552734,11.2744141c-0.1279297,0-0.2558594-0.0488281-0.3535156-0.1464844l-5.9296875-5.9296875
	c-0.1953125-0.1953125-0.1953125-0.5117188,0-0.7070312s0.5117188-0.1953125,0.7070312,0l5.9296875,5.9296875
	c0.1953125,0.1953125,0.1953125,0.5117188,0,0.7070312C19.4111328,11.2255859,19.2832031,11.2744141,19.1552734,11.2744141z"/>
<path fill="#989898" d="M22.5,23h-9c-0.2763672,0-0.5-0.2236328-0.5-0.5s0.2236328-0.5,0.5-0.5h9c0.2763672,0,0.5,0.2236328,0.5,0.5
	S22.7763672,23,22.5,23z"/>
<path d="M6.2270508,23H1.5C1.2236328,23,1,22.7763672,1,22.5v-4.7265625c0-1.1416016,0.4443359-2.2138672,1.2514648-3.0205078
	L14.6381836,2.3652344c1.6088867-1.6074219,4.215332-1.7558594,5.9316406-0.3378906
	c0.5117188,0.4238281,0.9838867,0.8955078,1.4023438,1.4023438c1.4189453,1.7177734,1.2705078,4.3232422-0.3378906,5.9326172
	L9.2475586,21.7490234C8.4404297,22.5556641,7.3676758,23,6.2270508,23z M2,22h4.2270508
	c0.8735352,0,1.6953125-0.3398438,2.3134766-0.9580078L20.9272461,8.6552734
	c1.2480469-1.2480469,1.3686523-3.2636719,0.2744141-4.5888672c-0.3789062-0.4580078-0.8056641-0.8847656-1.269043-1.2685547
	c-1.324707-1.0947266-3.3393555-0.9755859-4.5874023,0.2744141L2.9584961,15.4599609C2.340332,16.078125,2,16.8994141,2,17.7734375
	V22z"/>
<g>
</g>
</svg>
