<?xml version="1.0" encoding="utf-8"?>
<!-- Generator: Adobe Illustrator 25.0.1, SVG Export Plug-In . SVG Version: 6.00 Build 0)  -->
<svg version="1.1" id="Layer_1" xmlns="http://www.w3.org/2000/svg" xmlns:xlink="http://www.w3.org/1999/xlink" x="0px" y="0px"
	 viewBox="0 0 24 24" enable-background="new 0 0 24 24" xml:space="preserve">
<path d="M14,22.9980469c-1.3818359,0-2.7631836-0.1328125-4.1352539-0.3984375
	c-1.7753906-0.3447266-3.1069336-1.7861328-3.3134766-3.5888672c-0.5327148-4.6494141-0.5327148-9.3671875,0-14.0214844
	c0.206543-1.8027344,1.5380859-3.2441406,3.3134766-3.5888672c2.7446289-0.53125,5.5268555-0.53125,8.2705078,0
	c1.7753906,0.3447266,3.1069336,1.7861328,3.3134766,3.5888672c0.5327148,4.6542969,0.5327148,9.3720703,0,14.0214844
	c-0.206543,1.8027344-1.5380859,3.2441406-3.3134766,3.5888672C16.7631836,22.8652344,15.3818359,22.9980469,14,22.9980469z
	 M14,2.0019531c-1.3178711,0-2.6362305,0.1269531-3.9448242,0.3808594C8.7104492,2.6435547,7.7011719,3.7363281,7.5444336,5.1025391
	c-0.5234375,4.5791016-0.5234375,9.2197266,0,13.7949219c0.1567383,1.3662109,1.1660156,2.4589844,2.5107422,2.7197266
	c2.6171875,0.5078125,5.2724609,0.5078125,7.8896484,0l0,0c1.3447266-0.2607422,2.3540039-1.3535156,2.5107422-2.7197266
	c0.5234375-4.5751953,0.5234375-9.2158203,0-13.7949219c-0.1567383-1.3662109-1.1660156-2.4589844-2.5107422-2.7197266
	C16.6362305,2.1289062,15.3178711,2.0019531,14,2.0019531z"/>
<path fill="#989898" d="M12.8535156,12.1464844l-2.8286133-2.828125c-0.1953125-0.1953125-0.5117188-0.1953125-0.7070312,0
	s-0.1953125,0.5117188,0,0.7070312L11.2928467,12H2.5C2.2236328,12,2,12.2236328,2,12.5S2.2236328,13,2.5,13h8.7928467
	l-1.9749756,1.9746094c-0.1953125,0.1953125-0.1953125,0.5117188,0,0.7070312
	c0.0976562,0.0976562,0.2255859,0.1464844,0.3535156,0.1464844s0.2558594-0.0488281,0.3535156-0.1464844l2.8286133-2.828125
	C12.9472656,12.7597656,13,12.6328125,13,12.5S12.9472656,12.2402344,12.8535156,12.1464844z"/>
<g>
</g>
</svg>
