<?xml version="1.0" encoding="utf-8"?>
<!-- Generator: Adobe Illustrator 25.0.1, SVG Export Plug-In . SVG Version: 6.00 Build 0)  -->
<svg version="1.1" id="Layer_1" xmlns="http://www.w3.org/2000/svg" xmlns:xlink="http://www.w3.org/1999/xlink" x="0px" y="0px"
	 viewBox="0 0 24 24" enable-background="new 0 0 24 24" xml:space="preserve">
<path d="M9,22.9980469c-1.3818359,0-2.7631836-0.1328125-4.1352539-0.3984375
	c-1.7753906-0.3447266-3.1069336-1.7861328-3.3134766-3.5888672c-0.5327148-4.6542969-0.5327148-9.3720703,0-14.0214844
	c0.206543-1.8027344,1.5380859-3.2441406,3.3134766-3.5888672c2.7441406-0.53125,5.5268555-0.53125,8.2700195,0
	c1.7753906,0.3447266,3.1074219,1.7861328,3.3144531,3.5888672c0.5322266,4.6523438,0.5322266,9.3691406,0,14.0214844
	c-0.2070312,1.8027344-1.5390625,3.2441406-3.3144531,3.5888672C11.7631836,22.8652344,10.3813477,22.9980469,9,22.9980469z
	 M9,2.0019531c-1.3178711,0-2.6362305,0.1269531-3.9448242,0.3808594l0,0
	C3.7104492,2.6435547,2.7011719,3.7363281,2.5444336,5.1025391c-0.5234375,4.5751953-0.5234375,9.2158203,0,13.7949219
	c0.1567383,1.3662109,1.1660156,2.4589844,2.5107422,2.7197266c2.6171875,0.5078125,5.2724609,0.5078125,7.8896484,0
	c1.3452148-0.2597656,2.3540039-1.3535156,2.5102539-2.7197266c0.5234375-4.5771484,0.5234375-9.2177734,0-13.7949219
	c-0.15625-1.3662109-1.1650391-2.4599609-2.5102539-2.7197266C11.6362305,2.1289062,10.3178711,2.0019531,9,2.0019531z
	 M4.9599609,1.8916016h0.0097656H4.9599609z"/>
<g>
</g>
<path fill="#989898" d="M21.8535156,12.1464844l-2.828125-2.828125c-0.1953125-0.1953125-0.5117188-0.1953125-0.7070312,0
	s-0.1953125,0.5117188,0,0.7070312L20.2929688,12H11.5c-0.2763672,0-0.5,0.2236328-0.5,0.5s0.2236328,0.5,0.5,0.5h8.7929688
	l-1.9746094,1.9746094c-0.1953125,0.1953125-0.1953125,0.5117188,0,0.7070312
	c0.0976562,0.0976562,0.2255859,0.1464844,0.3535156,0.1464844s0.2558594-0.0488281,0.3535156-0.1464844l2.828125-2.828125
	C22.0488281,12.6582031,22.0488281,12.3417969,21.8535156,12.1464844z"/>
</svg>
