<?xml version="1.0" encoding="utf-8"?>
<!-- Generator: Adobe Illustrator 25.0.1, SVG Export Plug-In . SVG Version: 6.00 Build 0)  -->
<svg version="1.1" id="Layer_1" xmlns="http://www.w3.org/2000/svg" xmlns:xlink="http://www.w3.org/1999/xlink" x="0px" y="0px"
	 viewBox="0 0 24 24" enable-background="new 0 0 24 24" xml:space="preserve">
<path fill="#989898" d="M12,23c-1.6542969,0-3-1.3457031-3-3v-1.5C9,18.2236328,9.2236328,18,9.5,18h5
	c0.2763672,0,0.5,0.2236328,0.5,0.5V20C15,21.6542969,13.6542969,23,12,23z M10,19v1c0,1.1025391,0.8974609,2,2,2s2-0.8974609,2-2
	v-1H10z"/>
<path d="M19.5,18h-0.953125c0.1495972-1.3959961,0.5095825-5.1502686,0.5048828-8.921875
	C19.0470581,5.371521,16.1498413,2.3328247,12.5,2.0750732V1.5C12.5,1.2236328,12.2763672,1,12,1s-0.5,0.2236328-0.5,0.5v0.5750732
	C7.8501587,2.3328247,4.9529419,5.371521,4.9482422,9.078125C4.9435425,12.8497314,5.3035278,16.6040039,5.453125,18H4.5
	C4.2236328,18,4,18.2236328,4,18.5S4.2236328,19,4.5,19h15c0.2763672,0,0.5-0.2236328,0.5-0.5S19.7763672,18,19.5,18z
	 M5.9482422,9.0800781C5.953125,5.7548828,8.6679688,3.0498047,12,3.0498047s6.046875,2.7050781,6.0517578,6.0302734
	C18.0566406,12.9019165,17.6804199,16.7163696,17.541626,18H6.458374
	C6.3195801,16.7163696,5.9433594,12.9019165,5.9482422,9.0800781z"/>
<g>
</g>
</svg>
