<?xml version="1.0" encoding="utf-8"?>
<!-- Generator: Adobe Illustrator 25.0.1, SVG Export Plug-In . SVG Version: 6.00 Build 0)  -->
<svg version="1.1" id="Layer_1" xmlns="http://www.w3.org/2000/svg" xmlns:xlink="http://www.w3.org/1999/xlink" x="0px" y="0px"
	 viewBox="0 0 24 24" enable-background="new 0 0 24 24" xml:space="preserve">
<path fill="#989898" d="M9.2773438,15.2226562c-0.1279297,0-0.2558594-0.0488281-0.3535156-0.1464844
	c-0.1953125-0.1953125-0.1953125-0.5117188,0-0.7070312L22.1640625,1.1289062c0.1953125-0.1953125,0.5117188-0.1953125,0.7070312,0
	s0.1953125,0.5117188,0,0.7070312L9.6308594,15.0761719C9.5332031,15.1738281,9.4052734,15.2226562,9.2773438,15.2226562z"/>
<path d="M13.3925781,22.9833984c-0.0761719,0-0.1523438-0.0039062-0.2294922-0.0097656
	c-1.0546875-0.0878906-1.9179688-0.7675781-2.2539062-1.7734375l-2.0273438-6.0820312l-6.0820312-2.0273438
	c-1.0058594-0.3359375-1.6855469-1.1992188-1.7734375-2.2539062C0.9375,9.7695312,1.4726562,8.7939453,2.421875,8.2910156l0,0
	c6.6337891-3.515625,13.3613281-5.9716797,19.9980469-7.2988281c0.1630859-0.0351562,0.3330078,0.0185547,0.4511719,0.1367188
	s0.1699219,0.2880859,0.1367188,0.4511719c-1.3271484,6.6367188-3.7832031,13.3652344-7.2988281,19.9980469
	C15.2421875,22.4589844,14.3681641,22.9833984,13.3925781,22.9833984z M2.890625,9.1738281
	c-0.7050781,0.3740234-0.9111328,1.0615234-0.8671875,1.5800781c0.0546875,0.6591797,0.4628906,1.1777344,1.0927734,1.3876953
	l6.3193359,2.1064453c0.1494141,0.0498047,0.2666016,0.1669922,0.3164062,0.3164062l2.1064453,6.3193359
	c0.2099609,0.6298828,0.7285156,1.0380859,1.3876953,1.0927734c0.5214844,0.0449219,1.2070312-0.1621094,1.5800781-0.8671875
	c3.3388672-6.2998047,5.7080078-12.6826172,7.0478516-18.9833984C15.5732422,3.4658203,9.1904297,5.8349609,2.890625,9.1738281
	L2.890625,9.1738281z"/>
<g>
</g>
</svg>
