<?xml version="1.0" encoding="utf-8"?>
<!-- Generator: Adobe Illustrator 25.0.1, SVG Export Plug-In . SVG Version: 6.00 Build 0)  -->
<svg version="1.1" id="Layer_1" xmlns="http://www.w3.org/2000/svg" xmlns:xlink="http://www.w3.org/1999/xlink" x="0px" y="0px"
	 viewBox="0 0 24 24" enable-background="new 0 0 24 24" xml:space="preserve">
<path d="M15.9550781,22.8862305c-1.0585938,0-2.1191406-0.2856445-3.0478516-0.8666992
	c-3.7021484-2.3168945-6.8896484-5.2744141-9.4755859-8.7905273c-0.1630859-0.2226562-0.1152344-0.5356445,0.1074219-0.6992188
	c0.2207031-0.1621094,0.5341797-0.1171875,0.6992188,0.1064453c2.5097656,3.4140625,5.6054688,6.2861328,9.2001953,8.5356445
	c1.7578125,1.1010742,4.0869141,0.9179688,5.6660156-0.4438477c1.0566406-0.9125977,1.9423828-2.012207,2.5595703-3.1801758
	c0.3554688-0.6708984,0.265625-1.4624023-0.2246094-1.9692383c-0.8857422-0.9165039-1.9794922-1.6547852-3.2509766-2.1953125
	c-0.3691406-0.1547852-0.7841797-0.0844727-1.0566406,0.1870117l-1.1044922,1.1049805
	c-0.4775391,0.4780273-1.1875,0.6357422-1.8066406,0.4018555c-2.2167969-0.8349609-4.5185547-3.1362305-5.3525391-5.3525391
	C8.6347656,9.105957,8.7919922,8.3969727,9.2685547,7.918457l0.9833984-0.9819336
	c0.3671875-0.3671875,0.4765625-0.7871094,0.3095703-1.1821289c-0.5449219-1.2802734-1.2919922-2.3813477-2.21875-3.2719727
	c-0.4921875-0.472168-1.2626953-0.5600586-1.9199219-0.215332c-1.0898438,0.5732422-2.1269531,1.3833008-3,2.3432617
	c-1.4248047,1.5639648-1.6601562,4.2861328-0.5253906,6.0683594c0.1484375,0.2329102,0.0791016,0.5419922-0.1533203,0.6904297
	c-0.2294922,0.1474609-0.5400391,0.081543-0.6904297-0.1533203c-1.3837891-2.1743164-1.1074219-5.371582,0.6289062-7.2788086
	C3.6337891,2.8925781,4.765625,2.0087891,5.9580078,1.3823242c1.0361328-0.5463867,2.2734375-0.3935547,3.0771484,0.3789062
	c1.0253906,0.984375,1.8476562,2.1962891,2.4462891,3.6020508c0.328125,0.7724609,0.1328125,1.6245117-0.5224609,2.2802734
	L9.9765625,8.625C9.7763672,8.8256836,9.7080078,9.1191406,9.8037109,9.3720703
	c0.7314453,1.9423828,2.8271484,4.0375977,4.7695312,4.7695312c0.2539062,0.09375,0.5458984,0.0263672,0.7470703-0.1738281
	l1.1044922-1.1044922c0.5605469-0.5615234,1.40625-0.7197266,2.1542969-0.3999023
	c1.3955078,0.5927734,2.5996094,1.4067383,3.5791016,2.4199219c0.7919922,0.8193359,0.9482422,2.078125,0.3896484,3.1323242
	c-0.6748047,1.2763672-1.6396484,2.4760742-2.7910156,3.4692383C18.6826172,22.4116211,17.3203125,22.8862305,15.9550781,22.8862305
	z"/>
<path d="M18.7480469,9.2524414c-0.2763672,0-0.5-0.2236328-0.5-0.5c0-1.6542969-1.3457031-3-3-3c-0.2763672,0-0.5-0.2236328-0.5-0.5
	s0.2236328-0.5,0.5-0.5c2.2060547,0,4,1.7944336,4,4C19.2480469,9.0288086,19.0244141,9.2524414,18.7480469,9.2524414z"/>
<path d="M22.5087891,8.7080078c-0.2763672,0-0.5-0.2236328-0.5-0.5c0-3.4282227-2.7890625-6.2172852-6.2167969-6.2172852
	c-0.2763672,0-0.5-0.2236328-0.5-0.5s0.2236328-0.5,0.5-0.5c3.9794922,0,7.2167969,3.237793,7.2167969,7.2172852
	C23.0087891,8.484375,22.7851562,8.7080078,22.5087891,8.7080078z"/>
</svg>
