<?xml version="1.0" encoding="utf-8"?>
<!-- Generator: Adobe Illustrator 25.0.1, SVG Export Plug-In . SVG Version: 6.00 Build 0)  -->
<svg version="1.1" id="Layer_1" xmlns="http://www.w3.org/2000/svg" xmlns:xlink="http://www.w3.org/1999/xlink" x="0px" y="0px"
	 viewBox="0 0 24 24" enable-background="new 0 0 24 24" xml:space="preserve">
<g>
</g>
<path d="M12,21.9204102c-2.4960938,0-4.9921875-0.190918-7.4711914-0.5717773
	c-1.4584961-0.2246094-2.6352539-1.3183594-2.9282227-2.722168c-0.0566406-0.2700195,0.1166992-0.5351562,0.387207-0.5913086
	c0.2661133-0.0595703,0.534668,0.1166992,0.5913086,0.387207c0.2084961,0.9975586,1.0532227,1.7763672,2.1020508,1.9379883
	c4.8564453,0.746582,9.7822266,0.746582,14.6376953,0c1.0488281-0.1616211,1.8935547-0.9404297,2.1020508-1.9379883
	c0.7250977-3.4746094,0.7382812-6.7807617,0.0390625-9.8271484c-0.2119141-0.9238281-1.0019531-1.6464844-1.965332-1.7978516
	c-0.7895508-0.125-1.5791016-0.222168-2.3691406-0.3071289c-0.2329102-0.0249023-0.4169922-0.2084961-0.4433594-0.4414062
	L16.5185547,4.59375c-0.0405273-0.362793-0.293457-0.6625977-0.6289062-0.7460938
	c-2.6015625-0.6484375-5.2202148-0.6489258-7.7836914-0.0024414C7.7734375,3.9287109,7.5224609,4.2285156,7.4819336,4.590332
	L7.3178711,6.0488281C7.2915039,6.2817383,7.1074219,6.465332,6.8745117,6.4902344
	C6.0844727,6.5751953,5.2949219,6.6723633,4.5058594,6.796875C3.5415039,6.9487305,2.7519531,7.6713867,2.5400391,8.5952148
	c-0.5136719,2.2382812-0.6450195,4.6225586-0.390625,7.0869141c0.0283203,0.2744141-0.1713867,0.5205078-0.4462891,0.5488281
	c-0.2827148,0.015625-0.5200195-0.171875-0.5488281-0.4462891c-0.265625-2.5737305-0.1274414-5.0678711,0.4111328-7.4130859
	c0.3017578-1.3178711,1.4208984-2.3476562,2.784668-2.5625c0.6723633-0.105957,1.3452148-0.1928711,2.0185547-0.269043
	L6.487793,4.4785156c0.0878906-0.7744141,0.6396484-1.418457,1.3740234-1.6030273
	c2.7241211-0.6865234,5.5063477-0.6860352,8.2695312,0.0014648c0.7387695,0.184082,1.2939453,0.8291016,1.3813477,1.6049805
	l0.1186523,1.0581055c0.6733398,0.0761719,1.3461914,0.1630859,2.019043,0.2695312
	c1.3837891,0.2172852,2.4770508,1.2231445,2.7841797,2.5620117c0.7314453,3.1879883,0.7197266,6.6381836-0.0351562,10.2548828
	c-0.2929688,1.4038086-1.4697266,2.4975586-2.9282227,2.722168C16.9921875,21.7294922,14.4960938,21.9204102,12,21.9204102z"/>
<path d="M12,18c-2.7568359,0-5-2.2431641-5-5s2.2431641-5,5-5s5,2.2431641,5,5S14.7568359,18,12,18z M12,9
	c-2.2055664,0-4,1.7944336-4,4s1.7944336,4,4,4s4-1.7944336,4-4S14.2055664,9,12,9z"/>
</svg>
