<?xml version="1.0" encoding="utf-8"?>
<!-- Generator: Adobe Illustrator 25.0.1, SVG Export Plug-In . SVG Version: 6.00 Build 0)  -->
<svg version="1.1" id="Layer_1" xmlns="http://www.w3.org/2000/svg" xmlns:xlink="http://www.w3.org/1999/xlink" x="0px" y="0px"
	 viewBox="0 0 24 24" enable-background="new 0 0 24 24" xml:space="preserve">
<path d="M12,22.9726562c-2.015625,0-4.03125-0.140625-6.0322266-0.4223633
	c-2.3320312-0.3276367-4.1904297-2.1855469-4.5185547-4.5175781c-0.5566406-3.9677734-0.5625-7.9882812-0.015625-11.9511719
	c0.3310547-2.4047852,2.2421875-4.315918,4.6474609-4.6479492c3.9277344-0.5419922,7.9101562-0.5419922,11.8378906,0
	c2.4052734,0.3320312,4.3164062,2.2431641,4.6474609,4.6479492c0.0380859,0.2734375-0.1533203,0.5258789-0.4267578,0.5634766
	c-0.2685547,0.0390625-0.5263672-0.152832-0.5634766-0.4267578c-0.2705078-1.9628906-1.8310547-3.5234375-3.7939453-3.7944336
	c-3.8359375-0.5283203-7.7265625-0.5283203-11.5644531,0c-1.9628906,0.2709961-3.5234375,1.831543-3.7939453,3.7944336
	c-0.5332031,3.8710938-0.5283203,7.7993164,0.015625,11.675293c0.2705078,1.9228516,1.7441406,3.3964844,3.6669922,3.6665039
	c3.9101562,0.5498047,7.8769531,0.5498047,11.7871094,0c1.9228516-0.2700195,3.3964844-1.7436523,3.6669922-3.6669922
	c0.4238281-3.0170898,0.5224609-6.0795898,0.2910156-9.1025391c-0.0205078-0.2753906,0.1855469-0.515625,0.4609375-0.5366211
	c0.2470703-0.0258789,0.515625,0.184082,0.5371094,0.4604492c0.2353516,3.0947266,0.1357422,6.2294922-0.2988281,9.3183594
	c-0.328125,2.3320312-2.1865234,4.1899414-4.5185547,4.5175781C16.03125,22.831543,14.015625,22.9726562,12,22.9726562z"/>
<path d="M12.5,18c-0.2763672,0-0.5-0.2236328-0.5-0.5v-10C12,7.2236328,12.2236328,7,12.5,7S13,7.2236328,13,7.5v10
	C13,17.7763672,12.7763672,18,12.5,18z"/>
<path d="M7.5,18C7.2236328,18,7,17.7763672,7,17.5v-4C7,13.2236328,7.2236328,13,7.5,13S8,13.2236328,8,13.5v4
	C8,17.7763672,7.7763672,18,7.5,18z"/>
<path d="M17.5,18c-0.2763672,0-0.5-0.2236328-0.5-0.5v-7c0-0.2763672,0.2236328-0.5,0.5-0.5s0.5,0.2236328,0.5,0.5v7
	C18,17.7763672,17.7763672,18,17.5,18z"/>
</svg>
