<?xml version="1.0" encoding="utf-8"?>
<!-- Generator: Adobe Illustrator 25.0.1, SVG Export Plug-In . SVG Version: 6.00 Build 0)  -->
<svg version="1.1" id="Layer_1" xmlns="http://www.w3.org/2000/svg" xmlns:xlink="http://www.w3.org/1999/xlink" x="0px" y="0px"
	 viewBox="0 0 24 24" enable-background="new 0 0 24 24" xml:space="preserve">
<g>
</g>
<path d="M12.0039062,22.9951172c-1.5576172,0-3.09375-0.331543-4.5351562-0.9858398l-3.9526367,0.6586914
	c-0.6142578,0.1030273-1.215332-0.0913086-1.6538086-0.5302734c-0.4389648-0.4384766-0.6323242-1.0415039-0.5302734-1.6538086
	L1.9907227,16.53125c-0.9692383-2.1347656-1.2304688-4.4794922-0.7543945-6.7915039
	c0.918457-4.4638672,4.5512695-7.921875,9.0395508-8.6049805c2.9663086-0.4516602,5.9057617,0.2714844,8.277832,2.0341797
	c0.2216797,0.1645508,0.2685547,0.4780273,0.1035156,0.699707c-0.1660156,0.222168-0.4804688,0.2670898-0.6992188,0.1030273
	C15.8007812,2.3696289,13.125,1.7133789,10.4262695,2.1230469C6.3500977,2.7441406,3.050293,5.8857422,2.2158203,9.940918
	c-0.4428711,2.1508789-0.1845703,4.331543,0.7456055,6.3076172c0.043457,0.0917969,0.0576172,0.1948242,0.0410156,0.2949219
	l-0.684082,4.1044922c-0.0483398,0.2900391,0.0429688,0.5751953,0.2509766,0.7827148
	c0.2070312,0.2080078,0.4931641,0.2983398,0.7827148,0.2509766l4.1044922-0.684082
	c0.1020508-0.0151367,0.2036133-0.0024414,0.2949219,0.0410156c1.9755859,0.9296875,4.1567383,1.1870117,6.3071289,0.7456055
	c4.0556641-0.8344727,7.1972656-4.1342773,7.8183594-8.2109375c0.3916016-2.5761719-0.1953125-5.1538086-1.6542969-7.2592773
	c-0.1572266-0.2270508-0.1005859-0.5385742,0.1259766-0.6958008c0.2265625-0.15625,0.5380859-0.1005859,0.6962891,0.1264648
	c1.6044922,2.315918,2.2509766,5.1494141,1.8203125,7.9790039c-0.6835938,4.4882812-4.1416016,8.121582-8.6054688,9.0400391
	C13.5087891,22.918457,12.7539062,22.9951172,12.0039062,22.9951172z"/>
<circle cx="12" cy="12" r="1"/>
<circle cx="8" cy="12" r="1"/>
<circle cx="16" cy="12" r="1"/>
</svg>
