<?xml version="1.0" encoding="utf-8"?>
<!-- Generator: Adobe Illustrator 25.0.1, SVG Export Plug-In . SVG Version: 6.00 Build 0)  -->
<svg version="1.1" id="Layer_1" xmlns="http://www.w3.org/2000/svg" xmlns:xlink="http://www.w3.org/1999/xlink" x="0px" y="0px"
	 viewBox="0 0 24 24" enable-background="new 0 0 24 24" xml:space="preserve">
<g>
</g>
<path d="M12,22.972168c-2.3427734,0-4.6855469-0.1508789-7.0117188-0.4521484
	c-1.3720703-0.1782227-2.5761719-0.9541016-3.3046875-2.1298828c-0.7255859-1.171875-0.8828125-2.5908203-0.4326172-3.8930664
	c0.0898438-0.2607422,0.3789062-0.3979492,0.6357422-0.309082c0.2617188,0.090332,0.3994141,0.375,0.3095703,0.6362305
	c-0.3515625,1.0166016-0.2285156,2.1245117,0.3378906,3.0395508c0.5683594,0.918457,1.5097656,1.5253906,2.5830078,1.6640625
	c4.5664062,0.5927734,9.1992188,0.5922852,13.765625,0.0004883c1.0732422-0.1391602,2.0146484-0.7460938,2.5830078-1.6645508
	c0.5664062-0.9150391,0.6894531-2.0229492,0.3378906-3.0395508c-1.1445312-3.3051758-3.2695312-8.2949219-6.8857422-13.2963867
	C14.2275391,2.5732422,13.1640625,2.0253906,12,2.0253906S9.7724609,2.5732422,9.0820312,3.527832
	c-2.2734375,3.144043-4.2148438,6.6337891-5.7705078,10.3720703c-0.1064453,0.2558594-0.3994141,0.3759766-0.6542969,0.2695312
	c-0.2548828-0.105957-0.375-0.3984375-0.2695312-0.6533203C3.9736328,9.7060547,5.953125,6.1484375,8.2714844,2.9418945
	C9.1523438,1.7241211,10.5117188,1.0253906,12,1.0253906s2.8476562,0.6987305,3.7285156,1.9165039
	c3.6875,5.1005859,5.8535156,10.1865234,7.0205078,13.5551758c0.4501953,1.3022461,0.2929688,2.7211914-0.4326172,3.8930664
	c-0.7285156,1.1757812-1.9326172,1.9516602-3.3046875,2.1298828C16.6855469,22.8212891,14.3427734,22.972168,12,22.972168z"/>
<path d="M12,14c-0.2763672,0-0.5-0.2236328-0.5-0.5v-5C11.5,8.2236328,11.7236328,8,12,8s0.5,0.2236328,0.5,0.5v5
	C12.5,13.7763672,12.2763672,14,12,14z"/>
<circle cx="12" cy="17" r="1"/>
</svg>
