<?xml version="1.0" encoding="utf-8"?>
<!-- Generator: Adobe Illustrator 25.0.1, SVG Export Plug-In . SVG Version: 6.00 Build 0)  -->
<svg version="1.1" id="Layer_1" xmlns="http://www.w3.org/2000/svg" xmlns:xlink="http://www.w3.org/1999/xlink" x="0px" y="0px"
	 viewBox="0 0 24 24" enable-background="new 0 0 24 24" xml:space="preserve">
<g>
</g>
<path d="M16.5,16h-9C7.2236328,16,7,15.7763672,7,15.5S7.2236328,15,7.5,15h9c0.2763672,0,0.5,0.2236328,0.5,0.5
	S16.7763672,16,16.5,16z"/>
<g>
	<path d="M7.5,9C7.2236328,9,7,9.2236328,7,9.5S7.2236328,10,7.5,10h5c0.2763672,0,0.5-0.2236328,0.5-0.5S12.7763672,9,12.5,9H7.5z"
		/>
	<path d="M22.6246338,11.5286865l-0.6168213,0.3457642c-0.0109863,0.0412598-0.0253906,0.0812988-0.0253906,0.1260376
		c0.0019531,1.96875-0.1357422,3.9536133-0.4101562,5.8999023c-0.2705078,1.9257812-1.7460938,3.4013672-3.671875,3.671875
		c-3.9150391,0.5498047-7.8837891,0.5498047-11.8007812,0c-1.9257812-0.2709961-3.4013672-1.746582-3.671875-3.6713867
		c-0.5449219-3.8813477-0.5498047-7.8139648-0.015625-11.6899414c0.2714844-1.9658203,1.8339844-3.527832,3.7988281-3.7988281
		c2.6445312-0.3642578,5.3457031-0.4760742,8.0380859-0.3325195l0.0048828-0.0058594
		c0.0733032,1.0136108,0.1658936,1.9619751,0.2919922,2.8574219c0.1019897,0.725647,0.3660889,1.3959351,0.7323608,1.9981079
		l-0.0001221-0.0001831c0.0001221,0.0001831,0.0001831,0.0002441,0.0003052,0.0004272
		c0.111145,0.1826782,0.2282104,0.3597412,0.3598633,0.5272827c0.0424805,0.0557251,0.0916138,0.1055908,0.1362305,0.1594849
		c0.1044922,0.1227417,0.2044067,0.2488403,0.319397,0.3616333l0.000061,0.0001221l-0.000061-0.000061
		c0.793396,0.7781982,1.8255615,1.3140869,2.9754028,1.475647c1.0351562,0.1455078,2.1123047,0.2524414,3.2929688,0.328125
		c0.0107422,0.0004883,0.0214844,0.0009766,0.0322266,0.0009766c0.1240234,0,0.2431641-0.0458984,0.3349609-0.1289062
		c0.1005859-0.0908203,0.1601562-0.2177734,0.1650391-0.3525391c0.0566406-1.5585938-1.5146484-3.7050781-3.0048828-5.1948242
		c-1.4690552-1.4685669-3.5544434-3.0112305-5.1268311-2.9942627C14.7580566,1.1116943,14.7548218,1.1077271,14.75,1.1074219
		C11.8496094,0.9223633,8.9287109,1.027832,6.0742188,1.421875C3.6669922,1.753418,1.7539062,3.6665039,1.421875,6.0742188
		C0.8740234,10.0415039,0.8798828,14.0673828,1.4375,18.0400391C1.765625,20.3745117,3.6259766,22.234375,5.9609375,22.5625
		C7.9648438,22.8442383,9.9824219,22.9848633,12,22.9848633s4.0351562-0.140625,6.0390625-0.4223633
		c2.3349609-0.328125,4.1953125-2.1879883,4.5234375-4.5224609c0.2802734-1.9926758,0.421875-4.0249023,0.4199219-6.0405273
		C22.9824219,11.7739868,22.8301392,11.5908203,22.6246338,11.5286865z M19.1826172,4.8139648
		c1.4013672,1.4003906,2.3964844,2.8935547,2.6494141,3.9282227c-0.9257812-0.0698242-1.7900391-0.1616211-2.6240234-0.2788086
		c-1.9257812-0.2709961-3.4013672-1.746582-3.671875-3.6713867c-0.1162109-0.828125-0.2080078-1.690918-0.2783203-2.6235352
		C16.2919922,2.4213867,17.7832031,3.4150391,19.1826172,4.8139648z"/>
</g>
</svg>
