<?xml version="1.0" encoding="utf-8"?>
<!-- Generator: Adobe Illustrator 25.0.1, SVG Export Plug-In . SVG Version: 6.00 Build 0)  -->
<svg version="1.1" id="Layer_1" xmlns="http://www.w3.org/2000/svg" xmlns:xlink="http://www.w3.org/1999/xlink" x="0px" y="0px"
	 viewBox="0 0 24 24" enable-background="new 0 0 24 24" xml:space="preserve">
<g>
</g>
<g>
	<path d="M21.972168,3.4296875c-0.418457-0.5068359-0.890625-0.9785156-1.4023438-1.4023438
		c-1.7163086-1.4179688-4.3227539-1.2695312-5.9316406,0.3378906L2.2514648,14.7529297
		C1.4443359,15.5595703,1,16.6318359,1,17.7734375V22.5C1,22.7763672,1.2236328,23,1.5,23h4.7270508
		c1.140625,0,2.2133789-0.4443359,3.0205078-1.2509766L21.6342773,9.3623047
		C23.2426758,7.7529297,23.3911133,5.1474609,21.972168,3.4296875z M8.5405273,21.0419922
		C7.9223633,21.6601562,7.1005859,22,6.2270508,22H2v-4.2265625c0-0.8740234,0.340332-1.6953125,0.9584961-2.3134766
		L13.0457153,5.3718872l3.9581909,3.9581909c0.0976562,0.0976562,0.2255859,0.1464844,0.3535156,0.1464844
		s0.2558594-0.0488281,0.3535156-0.1464844c0.1953125-0.1953125,0.1953125-0.5117188,0-0.7070312L13.7527466,4.664856
		l1.5924683-1.5925903c1.2480469-1.25,3.2626953-1.3691406,4.5874023-0.2744141
		c0.4633789,0.3837891,0.8901367,0.8105469,1.269043,1.2685547c1.0942383,1.3251953,0.9736328,3.3408203-0.2744141,4.5888672
		L8.5405273,21.0419922z"/>
	<path d="M22.5,22h-9c-0.2763672,0-0.5,0.2236328-0.5,0.5s0.2236328,0.5,0.5,0.5h9c0.2763672,0,0.5-0.2236328,0.5-0.5
		S22.7763672,22,22.5,22z"/>
</g>
</svg>
