<?xml version="1.0" encoding="utf-8"?>
<!-- Generator: Adobe Illustrator 25.0.1, SVG Export Plug-In . SVG Version: 6.00 Build 0)  -->
<svg version="1.1" id="Layer_1" xmlns="http://www.w3.org/2000/svg" xmlns:xlink="http://www.w3.org/1999/xlink" x="0px" y="0px"
	 viewBox="0 0 24 24" enable-background="new 0 0 24 24" xml:space="preserve">
<g>
</g>
<path d="M21.4487305,4.9892578c-0.206543-1.8027344-1.5380859-3.2441406-3.3134766-3.5888672
	c-2.7436523-0.53125-5.5258789-0.53125-8.2705078,0C8.0893555,1.7451172,6.7578125,3.1865234,6.5512695,4.9892578
	C6.2852783,7.3132324,6.15625,9.6685181,6.1555786,12H2.5C2.2236328,12,2,12.2236328,2,12.5S2.2236328,13,2.5,13h8.7928467
	l-1.9749756,1.9746094c-0.1953125,0.1953125-0.1953125,0.5117188,0,0.7070312
	c0.0976562,0.0976562,0.2255859,0.1464844,0.3535156,0.1464844s0.2558594-0.0488281,0.3535156-0.1464844l2.8286133-2.828125
	C12.9472656,12.7597656,13,12.6328125,13,12.5s-0.0527344-0.2597656-0.1464844-0.3535156l-2.8286133-2.828125
	c-0.1953125-0.1953125-0.5117188-0.1953125-0.7070312,0s-0.1953125,0.5117188,0,0.7070312L11.2928467,12H7.1554565
	C7.1558838,9.7068481,7.28302,7.3890381,7.5444336,5.1025391c0.1567383-1.3662109,1.1660156-2.4589844,2.5107422-2.7197266
	c2.6171875-0.5078125,5.2724609-0.5078125,7.8896484,0c1.3447266,0.2607422,2.3540039,1.3535156,2.5107422,2.7197266
	c0.5234375,4.5791016,0.5234375,9.2197266,0,13.7949219c-0.1567383,1.3662109-1.1660156,2.4589844-2.5107422,2.7197266
	c-2.6171875,0.5078125-5.2724609,0.5078125-7.8896484,0c-1.3447266-0.2607422-2.3540039-1.3535156-2.5107422-2.7197266
	c-0.1274414-1.1152344-0.2255859-2.2509766-0.2915039-3.3759766c-0.0161133-0.2753906-0.2358398-0.5029297-0.5283203-0.4697266
	c-0.2753906,0.015625-0.4858398,0.2529297-0.4697266,0.5283203c0.0668945,1.1425781,0.1665039,2.2978516,0.2963867,3.4306641
	c0.206543,1.8027344,1.5380859,3.2441406,3.3134766,3.5888672c1.3720703,0.265625,2.753418,0.3984375,4.1352539,0.3984375
	c1.3813477,0,2.7631836-0.1328125,4.1352539-0.3984375c1.7753906-0.3447266,3.1069336-1.7861328,3.3134766-3.5888672
	C21.9814453,14.3613281,21.9814453,9.6435547,21.4487305,4.9892578z"/>
</svg>
