<?xml version="1.0" encoding="utf-8"?>
<!-- Generator: Adobe Illustrator 25.0.1, SVG Export Plug-In . SVG Version: 6.00 Build 0)  -->
<svg version="1.1" id="Layer_1" xmlns="http://www.w3.org/2000/svg" xmlns:xlink="http://www.w3.org/1999/xlink" x="0px" y="0px"
	 viewBox="0 0 24 24" enable-background="new 0 0 24 24" xml:space="preserve">
<g>
</g>
<path d="M21.8535156,12.1464844l-2.828125-2.828125c-0.1953125-0.1953125-0.5117188-0.1953125-0.7070312,0
	s-0.1953125,0.5117188,0,0.7070312L20.2929688,12h-3.4489136C16.843811,9.6710815,16.71521,7.3157959,16.4492188,4.9892578
	c-0.2070312-1.8027344-1.5390625-3.2441406-3.3144531-3.5888672c-2.7426758-0.53125-5.5253906-0.53125-8.2700195,0
	C3.0893555,1.7451172,1.7578125,3.1865234,1.5512695,4.9892578c-0.5327148,4.6494141-0.5327148,9.3671875,0,14.0214844
	c0.206543,1.8027344,1.5380859,3.2441406,3.3134766,3.5888672C6.2368164,22.8652344,7.6181641,22.9980469,9,22.9980469
	c1.3813477,0,2.7631836-0.1328125,4.1347656-0.3984375c1.7753906-0.3447266,3.1074219-1.7861328,3.3144531-3.5888672
	c0.1328125-1.1630859,0.234375-2.3427734,0.3007812-3.5058594c0.015625-0.2753906-0.1943359-0.5117188-0.4707031-0.5273438
	c-0.2910156-0.0195312-0.5117188,0.1953125-0.5273438,0.4707031c-0.0654297,1.1445312-0.1650391,2.3046875-0.296875,3.4492188
	c-0.15625,1.3662109-1.1650391,2.4599609-2.5102539,2.7197266c-2.6171875,0.5078125-5.2724609,0.5078125-7.8896484,0
	c-1.3447266-0.2607422-2.3540039-1.3535156-2.5107422-2.7197266c-0.5234375-4.5791016-0.5234375-9.2197266,0-13.7949219
	c0.1567383-1.3662109,1.1660156-2.4589844,2.5107422-2.7197266c2.6171875-0.5078125,5.2724609-0.5078125,7.8896484,0
	c1.3452148,0.2597656,2.3540039,1.3535156,2.5102539,2.7197266C15.7174072,7.3916626,15.8441772,9.7086182,15.8441162,12H11.5
	c-0.2763672,0-0.5,0.2236328-0.5,0.5s0.2236328,0.5,0.5,0.5h8.7929688l-1.9746094,1.9746094
	c-0.1953125,0.1953125-0.1953125,0.5117188,0,0.7070312c0.0976562,0.0976562,0.2255859,0.1464844,0.3535156,0.1464844
	s0.2558594-0.0488281,0.3535156-0.1464844l2.828125-2.828125C22.0488281,12.6582031,22.0488281,12.3417969,21.8535156,12.1464844z"
	/>
</svg>
