<?xml version="1.0" encoding="utf-8"?>
<!-- Generator: Adobe Illustrator 25.0.1, SVG Export Plug-In . SVG Version: 6.00 Build 0)  -->
<svg version="1.1" id="Layer_1" xmlns="http://www.w3.org/2000/svg" xmlns:xlink="http://www.w3.org/1999/xlink" x="0px" y="0px"
	 viewBox="0 0 24 24" enable-background="new 0 0 24 24" xml:space="preserve">
<g>
</g>
<path d="M19.5,18H6.458374c-0.1387939-1.2836304-0.5150146-5.0980835-0.5101318-8.9199219
	C5.953125,5.7548828,8.6679688,3.0498047,12,3.0498047s6.046875,2.7050781,6.0517578,6.0302734
	c0.0029297,2.3574219-0.1396484,4.6777344-0.2587891,6.2089844c-0.0224609,0.2753906,0.1835938,0.515625,0.4589844,0.5371094
	c0.2695312,0.0419922,0.515625-0.1835938,0.5371094-0.4589844c0.1220703-1.5498047,0.265625-3.8984375,0.2626953-6.2890625
	C19.0470581,5.371521,16.1498413,2.3328247,12.5,2.0750732V1.5C12.5,1.2236328,12.2763672,1,12,1s-0.5,0.2236328-0.5,0.5v0.5750732
	C7.8501587,2.3328247,4.9529419,5.371521,4.9482422,9.078125C4.9435425,12.8497314,5.3035278,16.6040039,5.453125,18H4.5
	C4.2236328,18,4,18.2236328,4,18.5S4.2236328,19,4.5,19H9v1c0,1.6542969,1.3457031,3,3,3s3-1.3457031,3-3v-1h4.5
	c0.2763672,0,0.5-0.2236328,0.5-0.5S19.7763672,18,19.5,18z M14,20c0,1.1025391-0.8974609,2-2,2s-2-0.8974609-2-2v-1h4V20z"/>
</svg>
