<?xml version="1.0" encoding="utf-8"?>
<!-- Generator: Adobe Illustrator 25.0.1, SVG Export Plug-In . SVG Version: 6.00 Build 0)  -->
<svg version="1.1" id="Layer_1" xmlns="http://www.w3.org/2000/svg" xmlns:xlink="http://www.w3.org/1999/xlink" x="0px" y="0px"
	 viewBox="0 0 24 24" enable-background="new 0 0 24 24" xml:space="preserve">
<g>
</g>
<path d="M22.8535156,22.1464844l-4.5274048-4.5274048c0.6268311-0.6887817,1.1620483-1.468811,1.5786743-2.3261108
	c0.1206055-0.2490234,0.0170898-0.5478516-0.230957-0.6689453c-0.25-0.1210938-0.5483398-0.0166016-0.668457,0.2314453
	c-1.512207,3.1123047-4.5986328,5.0449219-8.0551758,5.0449219C6.0151367,19.9003906,2,15.8857422,2,10.9501953
	S6.0151367,2,10.9501953,2s8.949707,4.0146484,8.949707,8.9501953c0,0.4648438-0.0356445,0.9306641-0.1064453,1.3837891
	c-0.0424805,0.2734375,0.1445312,0.5283203,0.4169922,0.5712891c0.2768555,0.0439453,0.5288086-0.1445312,0.5712891-0.4169922
	c0.0786133-0.5039062,0.1181641-1.0214844,0.1181641-1.5380859C20.8999023,5.4638672,16.4365234,1,10.9501953,1
	S1,5.4638672,1,10.9501953s4.4638672,9.9501953,9.9501953,9.9501953c2.4900513,0,4.8508911-0.9666748,6.654541-2.588623
	l4.541748,4.541748C22.2441406,22.9511719,22.3720703,23,22.5,23s0.2558594-0.0488281,0.3535156-0.1464844
	C23.0488281,22.6582031,23.0488281,22.3417969,22.8535156,22.1464844z"/>
<path d="M17.4951172,11.4306641c-0.2763672,0-0.5-0.2236328-0.5-0.5c0-3.2685547-2.6591797-5.9277344-5.9272461-5.9277344
	c-0.2763672,0-0.5-0.2236328-0.5-0.5s0.2236328-0.5,0.5-0.5c3.8198242,0,6.9272461,3.1074219,6.9272461,6.9277344
	C17.9951172,11.2070312,17.7714844,11.4306641,17.4951172,11.4306641z"/>
</svg>
