<?xml version="1.0" encoding="utf-8"?>
<!-- Generator: Adobe Illustrator 25.0.1, SVG Export Plug-In . SVG Version: 6.00 Build 0)  -->
<svg version="1.1" id="Layer_1" xmlns="http://www.w3.org/2000/svg" xmlns:xlink="http://www.w3.org/1999/xlink" x="0px" y="0px"
	 viewBox="0 0 24 24" enable-background="new 0 0 24 24" xml:space="preserve">
<g>
</g>
<path d="M23.0037231,1.5062866c0.0040894-0.0881348-0.00177-0.1784058-0.0457153-0.2601929
	c-0.1035156-0.1933594-0.3212891-0.2978516-0.5380859-0.2539062C15.7832031,2.3193359,9.0546875,4.7753906,2.421875,8.2910156
	C1.4726562,8.7939453,0.9375,9.7695312,1.0263672,10.8369141c0.0878906,1.0546875,0.7675781,1.9179688,1.7734375,2.2539062
	l6.0820312,2.0273438l2.0273438,6.0820312c0.3359375,1.0058594,1.1992188,1.6855469,2.2539062,1.7734375
	c0.0771484,0.0058594,0.1533203,0.0097656,0.2294922,0.0097656c0.9755859,0,1.8496094-0.5244141,2.3164062-1.4052734
	c1.7587891-3.3173828,3.2636719-6.6787109,4.4726562-9.9931641c0.0947266-0.2597656-0.0390625-0.546875-0.2978516-0.6416016
	c-0.2587891-0.09375-0.546875,0.0400391-0.6416016,0.2978516c-1.1933594,3.2724609-2.6796875,6.5917969-4.4160156,9.8681641
	c-0.3730469,0.7050781-1.0585938,0.9121094-1.5800781,0.8671875c-0.6591797-0.0546875-1.1777344-0.4628906-1.3876953-1.0927734
	l-2.0087891-6.0263672L21.6453857,3.0616455c-0.3713379,1.6266479-0.7868652,3.2564697-1.2860107,4.868042
	c-0.0820312,0.2636719,0.0654297,0.5429688,0.3300781,0.625c0.0488281,0.015625,0.0986328,0.0224609,0.1474609,0.0224609
	c0.2138672,0,0.4111328-0.1376953,0.4775391-0.3525391c0.6588669-2.1278467,1.2134209-4.2904644,1.6503792-6.4311671
	C22.9792881,1.7226218,23.0053101,1.5090942,23.0037231,1.5062866z M9.1425781,14.1503906l-6.0263672-2.0087891
	c-0.6298828-0.2099609-1.0380859-0.7285156-1.0927734-1.3876953C1.9794922,10.2353516,2.1855469,9.5478516,2.890625,9.1738281
	c5.9980469-3.1787109,12.0703125-5.4785156,18.0771484-6.8486328L9.1425781,14.1503906z"/>
</svg>
