<?xml version="1.0" encoding="utf-8"?>
<!-- Generator: Adobe Illustrator 25.0.1, SVG Export Plug-In . SVG Version: 6.00 Build 0)  -->
<svg version="1.1" id="Layer_1" xmlns="http://www.w3.org/2000/svg" xmlns:xlink="http://www.w3.org/1999/xlink" x="0px" y="0px"
	 viewBox="0 0 24 24" enable-background="new 0 0 24 24" xml:space="preserve">
<g>
</g>
<path d="M10.5400391,23H9.1640625c-1.0336914,0-1.9501953-0.6201172-2.3344727-1.5800781l-0.4277344-1.0693359
	c-0.1025391-0.2558594,0.0224609-0.546875,0.2788086-0.6494141c0.253418-0.1035156,0.546875,0.0224609,0.6499023,0.2783203
	l0.4277344,1.0693359C7.9897461,21.6269531,8.5415039,22,9.1640625,22h1.3759766
	c0.6137695,0,1.1333008-0.4296875,1.2353516-1.0214844c1.0288086-5.9580078,1.0288086-11.9990234,0-17.9570312
	C11.6733398,2.4296875,11.1538086,2,10.5400391,2H9.1640625C8.5415039,2,7.9897461,2.3730469,7.7583008,2.9511719l-1.59375,3.984375
	c-0.0595703,0.1494141-0.1875,0.2607422-0.3432617,0.2998047L3.4648438,7.8242188
	C2.6030273,8.0400391,2.0004883,8.8115234,2.0004883,9.7001953v4.5996094c0,0.8886719,0.6025391,1.6601562,1.4648438,1.8759766
	l2.355957,0.5888672c0.2680664,0.0673828,0.4311523,0.3388672,0.3637695,0.6064453
	c-0.0668945,0.2675781-0.3413086,0.4267578-0.605957,0.3642578l-2.3564453-0.5888672
	c-1.3085938-0.328125-2.222168-1.4990234-2.222168-2.8466797V9.7001953c0-1.3476562,0.9135742-2.5185547,2.2216797-2.8466797
	l2.1088867-0.5263672l1.4985352-3.7470703C7.2138672,1.6201172,8.1303711,1,9.1640625,1h1.3759766
	c1.1015625,0,2.0356445,0.7783203,2.2207031,1.8515625c1.0488281,6.0703125,1.0488281,12.2265625,0,18.296875
	C12.5756836,22.2216797,11.6416016,23,10.5400391,23z"/>
<path d="M17.2207031,15.0986328c-0.1279297,0-0.2558594-0.0488281-0.3535156-0.1464844
	c-0.1953125-0.1953125-0.1953125-0.5117188,0-0.7070312c1.2382812-1.2382812,1.2382812-3.2519531,0-4.4902344
	c-0.1953125-0.1953125-0.1953125-0.5117188,0-0.7070312s0.5117188-0.1953125,0.7070312,0
	C18.3632812,9.8369141,18.7978516,10.8847656,18.7978516,12s-0.4345703,2.1630859-1.2236328,2.9521484
	C17.4765625,15.0498047,17.3486328,15.0986328,17.2207031,15.0986328z"/>
<path d="M20.4169922,17.4873047c-0.1279297,0-0.2558594-0.0488281-0.3535156-0.1464844
	c-0.1953125-0.1953125-0.1953125-0.5117188,0-0.7070312C21.3017578,15.3964844,21.9833984,13.7509766,21.9833984,12
	s-0.6816406-3.3964844-1.9199219-4.6337891c-0.1953125-0.1953125-0.1953125-0.5117188,0-0.7070312s0.5117188-0.1953125,0.7070312,0
	C22.1972656,8.0849609,22.9833984,9.9824219,22.9833984,12s-0.7861328,3.9150391-2.2128906,5.3408203
	C20.6728516,17.4384766,20.5449219,17.4873047,20.4169922,17.4873047z"/>
</svg>
