<?xml version="1.0" encoding="utf-8"?>
<!-- Generator: Adobe Illustrator 25.0.1, SVG Export Plug-In . SVG Version: 6.00 Build 0)  -->
<svg version="1.1" id="Layer_1" xmlns="http://www.w3.org/2000/svg" xmlns:xlink="http://www.w3.org/1999/xlink" x="0px" y="0px"
	 viewBox="0 0 24 24" enable-background="new 0 0 24 24" xml:space="preserve">
<g>
	<path d="M22.6118164,7.0444336c-0.3369141-2.4003906-2.2158203-4.296875-4.5688477-4.6113281
		C17.6963501,2.3868408,17.3474121,2.3673096,17,2.3290405V1.5C17,1.2236328,16.7763672,1,16.5,1S16,1.2236328,16,1.5v0.729187
		c-2.6622925-0.2340698-5.3377075-0.2340698-8,0V1.5C8,1.2236328,7.7763672,1,7.5,1S7,1.2236328,7,1.5v0.8290405
		c-0.3474121,0.038269-0.6963501,0.0578003-1.0429688,0.1040649C3.6040039,2.7475586,1.7250977,4.644043,1.3881836,7.0444336
		c-0.5083008,3.6201172-0.5083008,7.2910156,0,10.9111328c0.3369141,2.4003906,2.2158203,4.296875,4.5688477,4.6113281
		C7.9619141,22.8344727,9.980957,22.96875,12,22.96875s4.0380859-0.1342773,6.0429688-0.4018555
		c2.3530273-0.3144531,4.2319336-2.2109375,4.5688477-4.6113281C23.1201172,14.3354492,23.1201172,10.6645508,22.6118164,7.0444336z
		 M6.0898438,3.4243164C6.392395,3.3838501,6.6968994,3.3674927,7,3.333313V4.5C7,4.7763672,7.2236328,5,7.5,5S8,4.7763672,8,4.5
		V3.2333984C9.3309326,3.1135864,10.6644287,3.03125,12,3.03125c1.3352661,0,2.6689453,0.0824585,4,0.2022705V4.5
		C16,4.7763672,16.2236328,5,16.5,5S17,4.7763672,17,4.5V3.333374c0.3031006,0.0341797,0.6077271,0.0505371,0.9101562,0.0909424
		c1.9106445,0.2553711,3.4365234,1.8012695,3.7114258,3.7587891C21.659729,7.4546509,21.6751099,7.7279663,21.7073975,8H2.2926025
		C2.3248901,7.7279663,2.340271,7.4546509,2.378418,7.1831055C2.6533203,5.2255859,4.1791992,3.6796875,6.0898438,3.4243164z
		 M21.621582,17.8168945c-0.2749023,1.9575195-1.8007812,3.503418-3.7114258,3.7587891
		c-3.9213867,0.5244141-7.8989258,0.5234375-11.8203125,0c-1.9106445-0.2553711-3.4365234-1.8012695-3.7114258-3.7587891
		C1.9676514,14.8924561,1.9174194,11.9359131,2.187561,9H21.812439
		C22.0825806,11.9359131,22.0323486,14.8924561,21.621582,17.8168945z"/>
	<circle cx="7" cy="13" r="1"/>
	<circle cx="12" cy="13" r="1"/>
	<circle cx="17" cy="13" r="1"/>
	<circle cx="7" cy="17" r="1"/>
	<circle cx="12" cy="17" r="1"/>
	<circle cx="17" cy="17" r="1"/>
</g>
<g>
</g>
</svg>
