<?xml version="1.0" encoding="utf-8"?>
<!-- Generator: Adobe Illustrator 25.0.1, SVG Export Plug-In . SVG Version: 6.00 Build 0)  -->
<svg version="1.1" id="Layer_1" xmlns="http://www.w3.org/2000/svg" xmlns:xlink="http://www.w3.org/1999/xlink" x="0px" y="0px"
	 viewBox="0 0 24 24" enable-background="new 0 0 24 24" xml:space="preserve">
<path d="M8.4995117,11H3.5004883C2.121582,11,1,9.878418,1,8.4995117V3.5004883C1,2.121582,2.121582,1,3.5004883,1h4.9990234
	C9.878418,1,11,2.121582,11,3.5004883v4.9990234C11,9.878418,9.878418,11,8.4995117,11z M3.5004883,2
	C2.6733398,2,2,2.6733398,2,3.5004883v4.9990234C2,9.3266602,2.6733398,10,3.5004883,10h4.9990234
	C9.3266602,10,10,9.3266602,10,8.4995117V3.5004883C10,2.6733398,9.3266602,2,8.4995117,2H3.5004883z"/>
<path d="M8.4995117,23H3.5004883C2.121582,23,1,21.878418,1,20.4995117v-4.9990234C1,14.121582,2.121582,13,3.5004883,13h4.9990234
	C9.878418,13,11,14.121582,11,15.5004883v4.9990234C11,21.878418,9.878418,23,8.4995117,23z M3.5004883,14
	C2.6733398,14,2,14.6733398,2,15.5004883v4.9990234C2,21.3266602,2.6733398,22,3.5004883,22h4.9990234
	C9.3266602,22,10,21.3266602,10,20.4995117v-4.9990234C10,14.6733398,9.3266602,14,8.4995117,14H3.5004883z"/>
<path d="M20.5,11h-5C14.1210938,11,13,9.878418,13,8.4995117V3.5004883C13,2.121582,14.1210938,1,15.5,1h5
	C21.8789062,1,23,2.121582,23,3.5004883v4.9990234C23,9.878418,21.8789062,11,20.5,11z M15.5,2
	C14.6728516,2,14,2.6733398,14,3.5004883v4.9990234C14,9.3266602,14.6728516,10,15.5,10h5c0.8271484,0,1.5-0.6733398,1.5-1.5004883
	V3.5004883C22,2.6733398,21.3271484,2,20.5,2H15.5z"/>
<path d="M20.5,23h-5c-1.3789062,0-2.5-1.121582-2.5-2.5004883v-4.9990234C13,14.121582,14.1210938,13,15.5,13h5
	c1.3789062,0,2.5,1.121582,2.5,2.5004883v4.9990234C23,21.878418,21.8789062,23,20.5,23z M15.5,14
	c-0.8271484,0-1.5,0.6733398-1.5,1.5004883v4.9990234C14,21.3266602,14.6728516,22,15.5,22h5
	c0.8271484,0,1.5-0.6733398,1.5-1.5004883v-4.9990234C22,14.6733398,21.3271484,14,20.5,14H15.5z"/>
</svg>
