<?xml version="1.0" encoding="utf-8"?>
<!-- Generator: Adobe Illustrator 25.0.1, SVG Export Plug-In . SVG Version: 6.00 Build 0)  -->
<svg version="1.1" id="Layer_1" xmlns="http://www.w3.org/2000/svg" xmlns:xlink="http://www.w3.org/1999/xlink" x="0px" y="0px"
	 viewBox="0 0 24 24" enable-background="new 0 0 24 24" xml:space="preserve">
<path d="M12.0039062,22.9951172c-1.5576172,0-3.09375-0.331543-4.5351562-0.9858398l-3.9526367,0.6586914
	c-0.6142578,0.1030273-1.215332-0.0913086-1.6538086-0.5302734c-0.4389648-0.4384766-0.6323242-1.0415039-0.5302734-1.6538086
	L1.9907227,16.53125c-0.9692383-2.1347656-1.2304688-4.4794922-0.7543945-6.7915039
	c0.918457-4.4638672,4.5512695-7.921875,9.0395508-8.6049805l0,0c3.5385742-0.5385742,6.9985352,0.5883789,9.5004883,3.0898438
	c2.5009766,2.5014648,3.6269531,5.9633789,3.0888672,9.4990234c-0.6835938,4.4882812-4.1416016,8.121582-8.6054688,9.0400391
	C13.5087891,22.918457,12.7539062,22.9951172,12.0039062,22.9951172z M7.5385742,20.9907227
	c0.0732422,0,0.1459961,0.0161133,0.2128906,0.0478516c1.9755859,0.9296875,4.1567383,1.1870117,6.3071289,0.7456055
	c4.0556641-0.8344727,7.1972656-4.1342773,7.8183594-8.2109375c0.4892578-3.2177734-0.5341797-6.3676758-2.8076172-8.6416016
	c-2.2744141-2.2749023-5.4248047-3.2978516-8.6430664-2.8085938l0,0C6.3500977,2.7441406,3.050293,5.8857422,2.2158203,9.940918
	c-0.4428711,2.1508789-0.1845703,4.331543,0.7456055,6.3076172c0.043457,0.0917969,0.0576172,0.1948242,0.0410156,0.2949219
	l-0.684082,4.1044922c-0.0483398,0.2900391,0.0429688,0.5751953,0.2509766,0.7827148
	c0.2070312,0.2080078,0.4931641,0.2983398,0.7827148,0.2509766l4.1044922-0.684082
	C7.4838867,20.9931641,7.5112305,20.9907227,7.5385742,20.9907227z"/>
<circle cx="12" cy="12" r="1"/>
<circle cx="8" cy="12" r="1"/>
<circle cx="16" cy="12" r="1"/>
<g>
</g>
</svg>
