<svg id="left-alt-circle" data-name="Multi Color" xmlns="http://www.w3.org/2000/svg" viewBox="0 0 24 24" class="icon multi-color" width="48" height="48"><title style="stroke-width: 2;">left alt circle</title><path id="tertiary-fill" d="M21,12A9,9,0,0,1,3,12a9.36,9.36,0,0,1,.22-2,9,9,0,0,0,17.56,0A9.36,9.36,0,0,1,21,12Z" style="fill: rgb(185, 69, 69); stroke-width: 2;"></path><path id="secondary-fill" d="M12,9.82v.59h4a1,1,0,0,1,1,1v2a1,1,0,0,1-1,1H12V15a1,1,0,0,1-1.71.7L7.71,13.12a1,1,0,0,1,0-1.42l2.58-2.58A1,1,0,0,1,12,9.82Z" style="fill: rgb(147, 77, 208); stroke-width: 2;"></path><path id="primary-stroke" d="M21,12a9,9,0,1,1-9-9A9,9,0,0,1,21,12ZM10.29,8.71,7.71,11.29a1,1,0,0,0,0,1.42l2.58,2.58a1,1,0,0,0,1.71-.7V14h4a1,1,0,0,0,1-1V11a1,1,0,0,0-1-1H12V9.41A1,1,0,0,0,10.29,8.71Z" style="fill: none; stroke: rgb(165, 112, 112); stroke-linecap: round; stroke-linejoin: round; stroke-width: 2;"></path></svg>