<?xml version="1.0" encoding="utf-8"?>
<!-- Generator: Adobe Illustrator 25.0.1, SVG Export Plug-In . SVG Version: 6.00 Build 0)  -->
<svg version="1.1" id="Layer_1" xmlns="http://www.w3.org/2000/svg" xmlns:xlink="http://www.w3.org/1999/xlink" x="0px" y="0px"
	 viewBox="0 0 24 24" enable-background="new 0 0 24 24" xml:space="preserve">
<path d="M21.4487305,4.9892578c-0.206543-1.8027344-1.5380859-3.2441406-3.3134766-3.5888672
	c-2.7436523-0.53125-5.5258789-0.53125-8.2705078,0C8.0893555,1.7451172,6.7578125,3.1865234,6.5512695,4.9892578
	C6.2849731,7.3157959,6.1518555,9.6582031,6.1517944,12H2.5C2.2236328,12,2,12.2236328,2,12.5S2.2236328,13,2.5,13h3.6801147
	c0.0324707,2.0089722,0.1426392,4.0164795,0.3711548,6.0107422c0.206543,1.8027344,1.5380859,3.2441406,3.3134766,3.5888672
	c1.3720703,0.265625,2.753418,0.3984375,4.1352539,0.3984375s2.7631836-0.1328125,4.1352539-0.3984375
	c1.7753906-0.3447266,3.1069336-1.7861328,3.3134766-3.5888672C21.9814453,14.3613281,21.9814453,9.6435547,21.4487305,4.9892578z
	 M20.4555664,18.8974609c-0.1567383,1.3662109-1.1660156,2.4589844-2.5107422,2.7197266
	c-2.6171875,0.5078125-5.2724609,0.5078125-7.8896484,0c-1.3447266-0.2607422-2.3540039-1.3535156-2.5107422-2.7197266
	C7.3205566,16.9404907,7.2125854,14.9709473,7.1802368,13h4.1126099l-1.9749756,1.9746094
	c-0.1953125,0.1953125-0.1953125,0.5117188,0,0.7070312c0.0976562,0.0976562,0.2255859,0.1464844,0.3535156,0.1464844
	s0.2558594-0.0488281,0.3535156-0.1464844l2.8286133-2.828125C12.9472656,12.7597656,13,12.6328125,13,12.5
	s-0.0527344-0.2597656-0.1464844-0.3535156l-2.8286133-2.828125c-0.1953125-0.1953125-0.5117188-0.1953125-0.7070312,0
	s-0.1953125,0.5117188,0,0.7070312L11.2928467,12H7.1519165c0.000061-2.3039551,0.1308594-4.6083984,0.3925171-6.8974609
	c0.1567383-1.3662109,1.1660156-2.4589844,2.5107422-2.7197266C11.3637695,2.1289062,12.6821289,2.0019531,14,2.0019531
	s2.6362305,0.1269531,3.9448242,0.3808594c1.3447266,0.2607422,2.3540039,1.3535156,2.5107422,2.7197266
	C20.9790039,9.6816406,20.9790039,14.3222656,20.4555664,18.8974609z"/>
<g>
</g>
</svg>
