<?xml version="1.0" encoding="utf-8"?>
<!-- Generator: Adobe Illustrator 25.0.1, SVG Export Plug-In . SVG Version: 6.00 Build 0)  -->
<svg version="1.1" id="Layer_1" xmlns="http://www.w3.org/2000/svg" xmlns:xlink="http://www.w3.org/1999/xlink" x="0px" y="0px"
	 viewBox="0 0 24 24" enable-background="new 0 0 24 24" xml:space="preserve">
<path d="M10.4013672,16.2421875c-0.3388672,0-0.675293-0.0898438-0.9775391-0.2675781
	c-0.515625-0.3027344-0.8554688-0.8164062-0.9326172-1.4101562c-0.2216797-1.7011719-0.2216797-3.4277344,0-5.1289062
	c0.0771484-0.59375,0.4169922-1.1074219,0.9326172-1.4101562c0.519043-0.3056641,1.1391602-0.3496094,1.7006836-0.1279297
	c1.4262695,0.5683594,2.8320312,1.4208984,4.296875,2.6064453l0,0C15.8740234,10.8701172,16.1337891,11.4150391,16.1337891,12
	s-0.2597656,1.1298828-0.7124023,1.4960938c-1.4648438,1.1855469-2.8706055,2.0380859-4.2973633,2.6064453
	C10.8896484,16.1953125,10.6445312,16.2421875,10.4013672,16.2421875z M10.4023438,8.7587891
	c-0.1640625,0-0.3266602,0.0429688-0.472168,0.1289062C9.6826172,9.0332031,9.5195312,9.2792969,9.4824219,9.5644531
	c-0.2099609,1.6162109-0.2099609,3.2548828,0,4.8710938c0.0371094,0.2851562,0.2001953,0.53125,0.4477539,0.6767578
	c0.2509766,0.1474609,0.5517578,0.1699219,0.8232422,0.0605469c1.3325195-0.5302734,2.6533203-1.3330078,4.0390625-2.4541016
	c0.2167969-0.1757812,0.3413086-0.4375,0.3413086-0.71875s-0.1245117-0.5429688-0.3413086-0.71875l0,0
	c-1.3857422-1.1210938-2.706543-1.9238281-4.0385742-2.4541016C10.6396484,8.78125,10.5205078,8.7587891,10.4023438,8.7587891z"/>
<path d="M12,23C5.9345703,23,1,18.0654297,1,12S5.9345703,1,12,1s11,4.9345703,11,11S18.0654297,23,12,23z M12,2
	C6.4858398,2,2,6.4863281,2,12s4.4858398,10,10,10s10-4.4863281,10-10S17.5141602,2,12,2z"/>
<g>
</g>
</svg>
