<?xml version="1.0" encoding="utf-8"?>
<!-- Generator: Adobe Illustrator 25.0.1, SVG Export Plug-In . SVG Version: 6.00 Build 0)  -->
<svg version="1.1" id="Layer_1" xmlns="http://www.w3.org/2000/svg" xmlns:xlink="http://www.w3.org/1999/xlink" x="0px" y="0px"
	 viewBox="0 0 24 24" enable-background="new 0 0 24 24" xml:space="preserve">
<path d="M12,11.0322266c-2.7666016,0-5.0166016-2.25-5.0166016-5.015625C6.9833984,3.25,9.2333984,1,12,1
	s5.0166016,2.25,5.0166016,5.0166016C17.0166016,8.7822266,14.7666016,11.0322266,12,11.0322266z M12,2
	C9.7851562,2,7.9833984,3.8017578,7.9833984,6.0166016c0,2.2138672,1.8017578,4.015625,4.0166016,4.015625
	s4.0166016-1.8017578,4.0166016-4.015625C16.0166016,3.8017578,14.2148438,2,12,2z"/>
<path d="M11.9980469,22.9990234c-0.9814453,0-1.9628906-0.0722656-2.9375-0.21875
	c-2.3876953-0.3574219-4.3056641-2.1279297-4.8857422-4.5107422c-0.2841797-1.1679688-0.0839844-2.3144531,0.5283203-3.2324219
	c0.5947266-0.8916016,1.4951172-1.4726562,2.5341797-1.6357422c3.1582031-0.4941406,6.3623047-0.4941406,9.5205078,0
	c1.0410156,0.1630859,1.9423828,0.7451172,2.5380859,1.6376953c0.6103516,0.9150391,0.8105469,2.0556641,0.5488281,3.1289062
	c-0.5986328,2.4580078-2.5664062,4.2744141-5.0126953,4.6279297C13.8916016,22.9316406,12.9453125,22.9990234,11.9980469,22.9990234
	z M7.3916016,14.3896484c-0.7597656,0.1191406-1.4189453,0.5458984-1.8564453,1.2021484
	C5.0771484,16.2773438,4.9277344,17.1367188,5.125,17.9482422c0.5048828,2.0703125,2.0996094,3.5458984,4.0839844,3.84375
	c1.8173828,0.2714844,3.6621094,0.2763672,5.4804688,0.0136719c2.0400391-0.2939453,3.6826172-1.8154297,4.1845703-3.8740234
	c0.1943359-0.8027344,0.0458984-1.6542969-0.4101562-2.3369141c-0.4384766-0.6582031-1.0996094-1.0859375-1.8603516-1.2050781
	C13.5458984,13.9111328,10.4472656,13.9111328,7.3916016,14.3896484L7.3916016,14.3896484z M7.3144531,13.8955078h0.0097656
	H7.3144531z"/>
<g>
</g>
</svg>
