<?xml version="1.0" encoding="utf-8"?>
<!-- Generator: Adobe Illustrator 25.0.1, SVG Export Plug-In . SVG Version: 6.00 Build 0)  -->
<svg version="1.1" id="Layer_1" xmlns="http://www.w3.org/2000/svg" xmlns:xlink="http://www.w3.org/1999/xlink" x1="0px" y1="0px"
	 viewBox="0 0 24 24" enable-background="new 0 0 24 24" xml:space="preserve">
<path d="M22.8535156,22.1464844l-4.5343018-4.5343018c1.5979614-1.7659302,2.5806885-4.0985107,2.5806885-6.6619873
	C20.8999023,5.4638672,16.4365234,1,10.9501953,1S1,5.4638672,1,10.9501953s4.4638672,9.9501953,9.9501953,9.9501953
	c2.5635986,0,4.8961792-0.9829102,6.6620483-2.5811157l4.5342407,4.5342407C22.2441406,22.9511719,22.3720703,23,22.5,23
	s0.2558594-0.0488281,0.3535156-0.1464844C23.0488281,22.6582031,23.0488281,22.3417969,22.8535156,22.1464844z
	 M10.9501953,19.9003906C6.0151367,19.9003906,2,15.8857422,2,10.9501953S6.0151367,2,10.9501953,2
	s8.949707,4.0146484,8.949707,8.9501953S15.8852539,19.9003906,10.9501953,19.9003906z"/>
<g>
</g>
<path d="M17.4951172,11.4306641c-0.2763672,0-0.5-0.2236328-0.5-0.5c0-3.2685547-2.6591797-5.9277344-5.9272461-5.9277344
	c-0.2763672,0-0.5-0.2236328-0.5-0.5s0.2236328-0.5,0.5-0.5c3.8198242,0,6.9272461,3.1074219,6.9272461,6.9277344
	C17.9951172,11.2070312,17.7714844,11.4306641,17.4951172,11.4306641z"/>
</svg>
