<?xml version="1.0" encoding="utf-8"?>
<!-- Generator: Adobe Illustrator 25.0.1, SVG Export Plug-In . SVG Version: 6.00 Build 0)  -->
<svg version="1.1" id="Layer_1" xmlns="http://www.w3.org/2000/svg" xmlns:xlink="http://www.w3.org/1999/xlink" x="0px" y="0px"
	 viewBox="0 0 24 24" enable-background="new 0 0 24 24" xml:space="preserve">
<path d="M22.9927979,1.4442139c-0.0010376-0.0015259-0.000061-0.0050659-0.0010986-0.0064697
	c-0.0061035-0.0650635-0.0012817-0.1314087-0.0336914-0.1916504c-0.1035156-0.1933594-0.3212891-0.2978516-0.5380859-0.2539062
	C15.7832031,2.3193359,9.0546875,4.7753906,2.421875,8.2910156C1.4726562,8.7939453,0.9375,9.7695312,1.0263672,10.8369141
	c0.0878906,1.0546875,0.7675781,1.9179688,1.7734375,2.2539062l6.0820312,2.0273438l2.0273438,6.0820312
	c0.3359375,1.0058594,1.1992188,1.6855469,2.2539062,1.7734375c0.0771484,0.0058594,0.1533203,0.0097656,0.2294922,0.0097656
	c0.9755859,0,1.8496094-0.5244141,2.3164062-1.4052734c3.4572353-6.5226498,5.8898029-13.1378508,7.2317677-19.6672897
	C22.9634171,1.8005582,22.9961548,1.4863281,22.9927979,1.4442139z M2.0234375,10.7539062
	C1.9794922,10.2353516,2.1855469,9.5478516,2.890625,9.1738281c5.9980469-3.1787109,12.0703125-5.4785156,18.0771484-6.8486328
	L9.1425781,14.1503906l-6.0263672-2.0087891C2.4863281,11.9316406,2.078125,11.4130859,2.0234375,10.7539062z M14.8261719,21.109375
	c-0.3730469,0.7050781-1.0585938,0.9121094-1.5800781,0.8671875c-0.6591797-0.0546875-1.1777344-0.4628906-1.3876953-1.0927734
	l-2.0087891-6.0263672L21.6600952,3.046936C20.2901001,9.0484619,18.0025024,15.1160889,14.8261719,21.109375z"/>
<g>
</g>
</svg>
