<?xml version="1.0" encoding="utf-8"?>
<!-- Generator: Adobe Illustrator 25.0.1, SVG Export Plug-In . SVG Version: 6.00 Build 0)  -->
<svg version="1.1" id="Layer_1" xmlns="http://www.w3.org/2000/svg" xmlns:xlink="http://www.w3.org/1999/xlink" x="0px" y="0px"
	 viewBox="0 0 24 24" enable-background="new 0 0 24 24" xml:space="preserve">
<path d="M12,23.0029297c-1.1455078,0-2.2900391-0.3789062-3.4277344-1.1367188
	c-0.1386719-0.0927734-0.2226562-0.2490234-0.2226562-0.4160156v-1.09375c0-0.4248047-0.2197266-0.8046875-0.5869141-1.0175781
	c-0.3681641-0.2099609-0.8066406-0.2109375-1.1748047,0l-0.9472656,0.546875
	c-0.1445312,0.0839844-0.3203125,0.0888672-0.4716797,0.015625c-2.4492188-1.2119141-3.6025391-3.2089844-3.4267578-5.9365234
	c0.0107422-0.1669922,0.1044922-0.3173828,0.2490234-0.4003906L2.9375,13.0175781
	C3.3056641,12.8046875,3.5253906,12.4248047,3.5253906,12S3.3056641,11.1953125,2.9375,10.9824219l-0.9462891-0.546875
	c-0.1445312-0.0830078-0.2382812-0.2333984-0.2490234-0.4003906C1.5664062,7.3076172,2.7197266,5.3105469,5.1689453,4.0986328
	c0.1513672-0.0732422,0.3271484-0.0693359,0.4716797,0.015625l0.9472656,0.546875
	c0.3681641,0.2119141,0.8066406,0.2109375,1.1748047,0c0.3671875-0.2128906,0.5869141-0.5927734,0.5869141-1.0175781v-1.09375
	c0-0.1669922,0.0839844-0.3232422,0.2226562-0.4160156c2.2753906-1.515625,4.5800781-1.515625,6.8554688,0
	c0.1386719,0.0927734,0.2226562,0.2490234,0.2226562,0.4160156v1.09375c0,0.4248047,0.2197266,0.8046875,0.5869141,1.0175781
	c0.3681641,0.2109375,0.8066406,0.2119141,1.1748047,0l0.9472656-0.546875
	c0.1445312-0.0849609,0.3212891-0.0888672,0.4716797-0.015625c2.4492188,1.2119141,3.6025391,3.2089844,3.4267578,5.9365234
	c-0.0107422,0.1669922-0.1044922,0.3173828-0.2490234,0.4003906L21.0625,10.9824219l0,0
	C20.6943359,11.1953125,20.4746094,11.5751953,20.4746094,12s0.2197266,0.8046875,0.5878906,1.0175781l0.9462891,0.546875
	c0.1445312,0.0830078,0.2382812,0.2333984,0.2490234,0.4003906c0.1757812,2.7275391-0.9775391,4.7246094-3.4267578,5.9365234
	c-0.1503906,0.0732422-0.3271484,0.0683594-0.4716797-0.015625l-0.9472656-0.546875
	c-0.3681641-0.2109375-0.8066406-0.2099609-1.1748047,0c-0.3671875,0.2128906-0.5869141,0.5927734-0.5869141,1.0175781v1.09375
	c0,0.1669922-0.0839844,0.3232422-0.2226562,0.4160156C14.2900391,22.6240234,13.1455078,23.0029297,12,23.0029297z
	 M9.3496094,21.1767578c1.78125,1.0976562,3.5195312,1.0976562,5.3007812,0v-0.8203125
	c0-0.7861328,0.40625-1.4902344,1.0869141-1.8828125c0.6806641-0.3935547,1.4921875-0.3945312,2.1748047,0l0.7109375,0.4101562
	c1.8408203-0.9941406,2.7099609-2.5,2.6494141-4.5908203L20.5625,13.8828125
	C19.8818359,13.4902344,19.4746094,12.7861328,19.4746094,12s0.4072266-1.4902344,1.0878906-1.8828125l0.7099609-0.4101562
	c0.0605469-2.0908203-0.8085938-3.5966797-2.6494141-4.5908203l-0.7109375,0.4101562
	c-0.6826172,0.3955078-1.4941406,0.3945312-2.1748047,0c-0.6806641-0.3925781-1.0869141-1.0966797-1.0869141-1.8828125V2.8232422
	c-1.78125-1.0976562-3.5195312-1.0976562-5.3007812,0v0.8203125c0,0.7861328-0.40625,1.4902344-1.0869141,1.8828125
	c-0.6806641,0.3945312-1.4921875,0.3955078-2.1748047,0L5.3769531,5.1162109
	c-1.8408203,0.9941406-2.7099609,2.5-2.6494141,4.5908203L3.4375,10.1171875
	C4.1181641,10.5097656,4.5253906,11.2138672,4.5253906,12S4.1181641,13.4902344,3.4375,13.8828125l-0.7099609,0.4101562
	c-0.0605469,2.0908203,0.8085938,3.5966797,2.6494141,4.5908203l0.7109375-0.4101562
	c0.6826172-0.3945312,1.4941406-0.3935547,2.1748047,0c0.6806641,0.3925781,1.0869141,1.0966797,1.0869141,1.8828125V21.1767578z
	 M20.8125,10.5498047h0.0097656H20.8125z"/>
<path d="M12,16c-2.2060547,0-4-1.7939453-4-4s1.7939453-4,4-4s4,1.7939453,4,4S14.2060547,16,12,16z M12,9
	c-1.6542969,0-3,1.3457031-3,3s1.3457031,3,3,3s3-1.3457031,3-3S13.6542969,9,12,9z"/>
<g>
</g>
</svg>
