<svg width="24" height="24" viewBox="0 0 24 24" fill="none" xmlns="http://www.w3.org/2000/svg">
<path d="M22.6118 7.04443C22.2749 4.64404 20.396 2.74756 18.043 2.43311C18.0287 2.43121 18.0143 2.43073 18 2.42883V4C18 4.27637 17.7764 4.5 17.5 4.5C17.2236 4.5 17 4.27637 17 4V2.32904V1.5C17 1.22363 16.7764 1 16.5 1C16.2236 1 16 1.22363 16 1.5V2.24658C13.3375 2.01233 10.6625 2.01233 8 2.24658V1.5C8 1.22363 7.77637 1 7.5 1C7.22363 1 7 1.22363 7 1.5V2.32904V4C7 4.27637 6.77637 4.5 6.5 4.5C6.22363 4.5 6 4.27637 6 4V2.42883C5.98572 2.43073 5.97131 2.43121 5.95703 2.43311C3.604 2.74756 1.7251 4.64404 1.38818 7.04443C0.879883 10.6646 0.879883 14.3354 1.38818 17.9556C1.7251 20.356 3.604 22.2524 5.95703 22.5669C7.96191 22.8345 9.98096 22.9688 12 22.9688C14.019 22.9688 16.0381 22.8345 18.043 22.5669C20.396 22.2524 22.2749 20.356 22.6118 17.9556C23.1201 14.3354 23.1201 10.6646 22.6118 7.04443ZM7 18C6.44769 18 6 17.5522 6 17C6 16.4477 6.44769 16 7 16C7.55231 16 8 16.4477 8 17C8 17.5522 7.55231 18 7 18ZM7 14C6.44769 14 6 13.5522 6 13C6 12.4477 6.44769 12 7 12C7.55231 12 8 12.4477 8 13C8 13.5522 7.55231 14 7 14ZM12 18C11.4477 18 11 17.5522 11 17C11 16.4477 11.4477 16 12 16C12.5523 16 13 16.4477 13 17C13 17.5522 12.5523 18 12 18ZM12 14C11.4477 14 11 13.5522 11 13C11 12.4477 11.4477 12 12 12C12.5523 12 13 12.4477 13 13C13 13.5522 12.5523 14 12 14ZM17 18C16.4477 18 16 17.5522 16 17C16 16.4477 16.4477 16 17 16C17.5523 16 18 16.4477 18 17C18 17.5522 17.5523 18 17 18ZM17 14C16.4477 14 16 13.5522 16 13C16 12.4477 16.4477 12 17 12C17.5523 12 18 12.4477 18 13C18 13.5522 17.5523 14 17 14ZM19 9H5C4.72363 9 4.5 8.77637 4.5 8.5C4.5 8.22363 4.72363 8 5 8H19C19.2764 8 19.5 8.22363 19.5 8.5C19.5 8.77637 19.2764 9 19 9Z" fill="white"/>
</svg>
