<svg width="24" height="24" viewBox="0 0 24 24" fill="none" xmlns="http://www.w3.org/2000/svg">
<path d="M22.6118 7.04443C22.2749 4.64404 20.396 2.74756 18.043 2.43311C14.0332 1.89795 9.9668 1.89795 5.95703 2.43311C3.604 2.74756 1.7251 4.64404 1.38818 7.04443C0.879883 10.6646 0.879883 14.3354 1.38818 17.9556C1.7251 20.356 3.604 22.2524 5.95703 22.5669C7.96191 22.8345 9.98096 22.9688 12 22.9688C14.019 22.9688 16.0381 22.8345 18.043 22.5669C20.396 22.2524 22.2749 20.356 22.6118 17.9556C23.1201 14.3354 23.1201 10.6646 22.6118 7.04443Z" fill="#30A2FF"/>
<path d="M7.5 5C7.22363 5 7 4.77637 7 4.5V1.5C7 1.22363 7.22363 1 7.5 1C7.77637 1 8 1.22363 8 1.5V4.5C8 4.77637 7.77637 5 7.5 5Z" fill="white"/>
<path d="M16.5 5C16.2236 5 16 4.77637 16 4.5V1.5C16 1.22363 16.2236 1 16.5 1C16.7764 1 17 1.22363 17 1.5V4.5C17 4.77637 16.7764 5 16.5 5Z" fill="white"/>
<path d="M19 9H5C4.72363 9 4.5 8.77637 4.5 8.5C4.5 8.22363 4.72363 8 5 8H19C19.2764 8 19.5 8.22363 19.5 8.5C19.5 8.77637 19.2764 9 19 9Z" fill="white"/>
<path d="M7 14C7.55228 14 8 13.5523 8 13C8 12.4477 7.55228 12 7 12C6.44772 12 6 12.4477 6 13C6 13.5523 6.44772 14 7 14Z" fill="white"/>
<path d="M12 14C12.5523 14 13 13.5523 13 13C13 12.4477 12.5523 12 12 12C11.4477 12 11 12.4477 11 13C11 13.5523 11.4477 14 12 14Z" fill="white"/>
<path d="M17 14C17.5523 14 18 13.5523 18 13C18 12.4477 17.5523 12 17 12C16.4477 12 16 12.4477 16 13C16 13.5523 16.4477 14 17 14Z" fill="white"/>
<path d="M7 18C7.55228 18 8 17.5523 8 17C8 16.4477 7.55228 16 7 16C6.44772 16 6 16.4477 6 17C6 17.5523 6.44772 18 7 18Z" fill="white"/>
<path d="M12 18C12.5523 18 13 17.5523 13 17C13 16.4477 12.5523 16 12 16C11.4477 16 11 16.4477 11 17C11 17.5523 11.4477 18 12 18Z" fill="white"/>
<path d="M17 18C17.5523 18 18 17.5523 18 17C18 16.4477 17.5523 16 17 16C16.4477 16 16 16.4477 16 17C16 17.5523 16.4477 18 17 18Z" fill="white"/>
</svg>
