<svg width="24" height="24" viewBox="0 0 24 24" fill="none" xmlns="http://www.w3.org/2000/svg">
<rect x="0.75" y="0.75" width="22.5" height="22.5" rx="7.25" stroke="white" stroke-width="1.5"/>
<path fill-rule="evenodd" clip-rule="evenodd" d="M12 0.75C12 1.16421 12.3358 1.5 12.75 1.5H16C19.5899 1.5 22.5 4.41015 22.5 8V16C22.5 19.5899 19.5899 22.5 16 22.5H12.75C12.3358 22.5 12 22.8358 12 23.25C12 23.6642 12.3358 24 12.75 24H16C20.4183 24 24 20.4183 24 16V8C24 3.58172 20.4183 0 16 0H12.75C12.3358 0 12 0.335786 12 0.75Z" fill="#30A2FF"/>
</svg>
