<svg width="22" height="22" viewBox="0 0 22 22" fill="none" xmlns="http://www.w3.org/2000/svg">
<path d="M21.6117 6.04443C21.2748 3.64404 19.3959 1.74756 17.0428 1.43311C16.6962 1.38684 16.3473 1.36731 15.9999 1.32904V0.5C15.9999 0.223633 15.7762 0 15.4999 0C15.2235 0 14.9999 0.223633 14.9999 0.5V1.22919C12.3376 0.995117 9.66217 0.995117 6.99988 1.22919V0.5C6.99988 0.223633 6.77625 0 6.49988 0C6.22351 0 5.99988 0.223633 5.99988 0.5V1.32904C5.65247 1.36731 5.30353 1.38684 4.95691 1.43311C2.60388 1.74756 0.724976 3.64404 0.388062 6.04443C-0.120239 9.66455 -0.120239 13.3354 0.388062 16.9556C0.724976 19.356 2.60388 21.2524 4.95691 21.5669C6.96179 21.8345 8.98083 21.9688 10.9999 21.9688C13.0189 21.9688 15.038 21.8345 17.0428 21.5669C19.3959 21.2524 21.2748 19.356 21.6117 16.9556C22.12 13.3354 22.12 9.66455 21.6117 6.04443ZM5.08972 2.42432C5.39227 2.38385 5.69678 2.36749 5.99988 2.33331V3.5C5.99988 3.77637 6.22351 4 6.49988 4C6.77625 4 6.99988 3.77637 6.99988 3.5V2.2334C8.33081 2.11359 9.66431 2.03125 10.9999 2.03125C12.3351 2.03125 13.6688 2.11371 14.9999 2.23352V3.5C14.9999 3.77637 15.2235 4 15.4999 4C15.7762 4 15.9999 3.77637 15.9999 3.5V2.33337C16.303 2.36755 16.6076 2.38391 16.91 2.42432C18.8207 2.67969 20.3466 4.22559 20.6215 6.18311C20.6596 6.45465 20.675 6.72797 20.7073 7H1.29248C1.32477 6.72797 1.34015 6.45465 1.3783 6.18311C1.6532 4.22559 3.17908 2.67969 5.08972 2.42432ZM20.6215 16.8169C20.3466 18.7744 18.8207 20.3203 16.91 20.5757C12.9886 21.1001 9.01111 21.0991 5.08972 20.5757C3.17908 20.3203 1.6532 18.7744 1.3783 16.8169C0.967529 13.8925 0.917297 10.9359 1.18744 8H20.8123C21.0825 10.9359 21.0322 13.8925 20.6215 16.8169Z" fill="white"/>
<path d="M6 13C6.55228 13 7 12.5523 7 12C7 11.4477 6.55228 11 6 11C5.44772 11 5 11.4477 5 12C5 12.5523 5.44772 13 6 13Z" fill="white"/>
<path d="M11 13C11.5523 13 12 12.5523 12 12C12 11.4477 11.5523 11 11 11C10.4477 11 10 11.4477 10 12C10 12.5523 10.4477 13 11 13Z" fill="white"/>
<path d="M16 13C16.5523 13 17 12.5523 17 12C17 11.4477 16.5523 11 16 11C15.4477 11 15 11.4477 15 12C15 12.5523 15.4477 13 16 13Z" fill="white"/>
<path d="M6 17C6.55228 17 7 16.5523 7 16C7 15.4477 6.55228 15 6 15C5.44772 15 5 15.4477 5 16C5 16.5523 5.44772 17 6 17Z" fill="white"/>
<path d="M11 17C11.5523 17 12 16.5523 12 16C12 15.4477 11.5523 15 11 15C10.4477 15 10 15.4477 10 16C10 16.5523 10.4477 17 11 17Z" fill="white"/>
<path d="M16 17C16.5523 17 17 16.5523 17 16C17 15.4477 16.5523 15 16 15C15.4477 15 15 15.4477 15 16C15 16.5523 15.4477 17 16 17Z" fill="white"/>
</svg>
