<svg width="24" height="24" viewBox="0 0 24 24" fill="none" xmlns="http://www.w3.org/2000/svg">
<path d="M8 1.5H16V-1.5H8V1.5ZM22.5 8V16H25.5V8H22.5ZM16 22.5H8V25.5H16V22.5ZM1.5 16V8H-1.5V16H1.5ZM8 22.5C4.41015 22.5 1.5 19.5899 1.5 16H-1.5C-1.5 21.2467 2.75329 25.5 8 25.5V22.5ZM22.5 16C22.5 19.5899 19.5899 22.5 16 22.5V25.5C21.2467 25.5 25.5 21.2467 25.5 16H22.5ZM16 1.5C19.5899 1.5 22.5 4.41015 22.5 8H25.5C25.5 2.7533 21.2467 -1.5 16 -1.5V1.5ZM8 -1.5C2.7533 -1.5 -1.5 2.75329 -1.5 8H1.5C1.5 4.41015 4.41015 1.5 8 1.5V-1.5Z" fill="white"/>
</svg>
