<svg width="22" height="22" viewBox="0 0 22 22" fill="none" xmlns="http://www.w3.org/2000/svg">
<path d="M21.6117 6.04443C21.2748 3.64404 19.3959 1.74756 17.0428 1.43311C17.0286 1.43121 17.0142 1.43073 16.9999 1.42883V3C16.9999 3.27637 16.7762 3.5 16.4999 3.5C16.2235 3.5 15.9999 3.27637 15.9999 3V1.32904V0.5C15.9999 0.223633 15.7762 0 15.4999 0C15.2235 0 14.9999 0.223633 14.9999 0.5V1.24658C12.3373 1.01233 9.66241 1.01233 6.99988 1.24658V0.5C6.99988 0.223633 6.77625 0 6.49988 0C6.22351 0 5.99988 0.223633 5.99988 0.5V1.32904V3C5.99988 3.27637 5.77625 3.5 5.49988 3.5C5.22351 3.5 4.99988 3.27637 4.99988 3V1.42883C4.9856 1.43073 4.97119 1.43121 4.95691 1.43311C2.60388 1.74756 0.724976 3.64404 0.388062 6.04443C-0.120239 9.66455 -0.120239 13.3354 0.388062 16.9556C0.724976 19.356 2.60388 21.2524 4.95691 21.5669C6.96179 21.8345 8.98083 21.9688 10.9999 21.9688C13.0189 21.9688 15.038 21.8345 17.0428 21.5669C19.3959 21.2524 21.2748 19.356 21.6117 16.9556C22.12 13.3354 22.12 9.66455 21.6117 6.04443ZM5.99988 17C5.44757 17 4.99988 16.5522 4.99988 16C4.99988 15.4477 5.44757 15 5.99988 15C6.55219 15 6.99988 15.4477 6.99988 16C6.99988 16.5522 6.55219 17 5.99988 17ZM5.99988 13C5.44757 13 4.99988 12.5522 4.99988 12C4.99988 11.4477 5.44757 11 5.99988 11C6.55219 11 6.99988 11.4477 6.99988 12C6.99988 12.5522 6.55219 13 5.99988 13ZM10.9999 17C10.4476 17 9.99988 16.5522 9.99988 16C9.99988 15.4477 10.4476 15 10.9999 15C11.5522 15 11.9999 15.4477 11.9999 16C11.9999 16.5522 11.5522 17 10.9999 17ZM10.9999 13C10.4476 13 9.99988 12.5522 9.99988 12C9.99988 11.4477 10.4476 11 10.9999 11C11.5522 11 11.9999 11.4477 11.9999 12C11.9999 12.5522 11.5522 13 10.9999 13ZM15.9999 17C15.4476 17 14.9999 16.5522 14.9999 16C14.9999 15.4477 15.4476 15 15.9999 15C16.5522 15 16.9999 15.4477 16.9999 16C16.9999 16.5522 16.5522 17 15.9999 17ZM15.9999 13C15.4476 13 14.9999 12.5522 14.9999 12C14.9999 11.4477 15.4476 11 15.9999 11C16.5522 11 16.9999 11.4477 16.9999 12C16.9999 12.5522 16.5522 13 15.9999 13ZM17.9999 8H3.99988C3.72351 8 3.49988 7.77637 3.49988 7.5C3.49988 7.22363 3.72351 7 3.99988 7H17.9999C18.2762 7 18.4999 7.22363 18.4999 7.5C18.4999 7.77637 18.2762 8 17.9999 8Z" fill="white"/>
</svg>
