<svg id="acorn" data-name="Flat Line" xmlns="http://www.w3.org/2000/svg" viewBox="0 0 24 24" class="icon flat-color" width="48" height="48"><path id="primary" d="M13,3a4.9,4.9,0,0,0-1,3" style="fill: rgb(101, 45, 144); stroke: rgb(101, 45, 144); stroke-linecap: round; stroke-linejoin: round; stroke-width: 2px;"></path><path id="secondary" d="M6.45,14.1a8.36,8.36,0,0,0,5.18,6.83,1,1,0,0,0,.74,0,8.36,8.36,0,0,0,5.18-6.83L18,10H6Z" style="fill: rgb(246, 146, 30);"></path><path id="primary-2" data-name="primary" d="M18,10H6A1,1,0,0,1,5,9H5A3,3,0,0,1,8,6h8a3,3,0,0,1,3,3h0A1,1,0,0,1,18,10Zm0,0-.45,4.1a8.36,8.36,0,0,1-5.18,6.83h0a1,1,0,0,1-.74,0h0A8.36,8.36,0,0,1,6.45,14.1L6,10H18Z" style="fill: rgb(101, 45, 144); stroke: rgb(101, 45, 144); stroke-linecap: round; stroke-linejoin: round; stroke-width: 2px;"></path></svg>