<?xml version="1.0" encoding="utf-8"?>
<!-- Generator: Adobe Illustrator 25.0.1, SVG Export Plug-In . SVG Version: 6.00 Build 0)  -->
<svg version="1.1" id="Layer_1" xmlns="http://www.w3.org/2000/svg" xmlns:xlink="http://www.w3.org/1999/xlink" x="0px" y="0px"
	 viewBox="0 0 24 24" enable-background="new 0 0 24 24" xml:space="preserve">
<path fill="#989898" d="M21.0605469,5.8022461c-0.4711914-0.5336914-1.1489258-0.8393555-1.8603516-0.8393555H5.3886719
	c-0.2763672,0-0.5,0.2236328-0.5,0.5s0.2236328,0.5,0.5,0.5H5.430603l0.8086548,9.7044678
	c-0.0084229,0.0010986-0.0159912,0.0024414-0.0244141,0.00354c-0.2739258,0.0366211-0.4663086,0.2880859-0.4296875,0.5615234
	c0.0336914,0.2514648,0.2480469,0.434082,0.4951172,0.434082c0.0219727,0,0.0439453-0.0014648,0.0664062-0.0043945
	c3.4702148-0.4624023,6.4912109-1.027832,8.9794922-1.6801758c3.4116211-0.894043,5.8989258-3.7319336,6.3359375-7.2299805
	C21.7504883,7.0463867,21.53125,6.3354492,21.0605469,5.8022461z"/>
<g>
	<path d="M18.5,19h-12c-0.9326172,0-1.4829102-0.3398438-1.5097656-0.9326172
		c-0.027832-0.6166992,0.5019531-1.3271484,1.3354492-1.402832c0.2739258-0.0249023,0.4760742-0.265625,0.453125-0.5395508
		L5.6547852,2.6347656C5.6396484,2.4516602,5.5253906,2.2919922,5.3574219,2.2182617L2.7216797,1.0625
		C2.4672852,0.9516602,2.1738281,1.0668945,2.0629883,1.3198242s0.0043945,0.5478516,0.2573242,0.6586914l2.362793,1.0361328
		l1.0620117,12.7456055c-1.1464844,0.3320312-1.796875,1.4067383-1.7539062,2.3520508C4.0302734,18.9829102,4.7114258,20,6.5,20h12
		c0.2763672,0,0.5-0.2236328,0.5-0.5S18.7763672,19,18.5,19z"/>
	<circle cx="8" cy="22" r="1"/>
	<circle cx="16" cy="22" r="1"/>
</g>
</svg>
