<?xml version="1.0" encoding="utf-8"?>
<!-- Generator: Adobe Illustrator 25.0.1, SVG Export Plug-In . SVG Version: 6.00 Build 0)  -->
<svg version="1.1" id="Layer_1" xmlns="http://www.w3.org/2000/svg" xmlns:xlink="http://www.w3.org/1999/xlink" x="0px" y="0px"
	 viewBox="0 0 24 24" enable-background="new 0 0 24 24" xml:space="preserve">
<g>
</g>
<path fill="#989898" d="M22.6118164,7.0444336c-0.3369141-2.4003906-2.2158203-4.296875-4.5688477-4.6113281
	c-4.0097656-0.5351562-8.0761719-0.5351562-12.0859375,0C3.6040039,2.7475586,1.7250977,4.644043,1.3881836,7.0444336
	c-0.5083008,3.6201172-0.5083008,7.2910156,0,10.9111328c0.3369141,2.4003906,2.2158203,4.296875,4.5688477,4.6113281
	C7.9619141,22.8344727,9.980957,22.96875,12,22.96875s4.0380859-0.1342773,6.0429688-0.4018555
	c2.3530273-0.3144531,4.2319336-2.2109375,4.5688477-4.6113281C23.1201172,14.3354492,23.1201172,10.6645508,22.6118164,7.0444336z"
	/>
<path d="M7.5,5C7.2236328,5,7,4.7763672,7,4.5v-3C7,1.2236328,7.2236328,1,7.5,1S8,1.2236328,8,1.5v3C8,4.7763672,7.7763672,5,7.5,5
	z"/>
<path d="M16.5,5C16.2236328,5,16,4.7763672,16,4.5v-3C16,1.2236328,16.2236328,1,16.5,1S17,1.2236328,17,1.5v3
	C17,4.7763672,16.7763672,5,16.5,5z"/>
<path d="M19,9H5C4.7236328,9,4.5,8.7763672,4.5,8.5S4.7236328,8,5,8h14c0.2763672,0,0.5,0.2236328,0.5,0.5S19.2763672,9,19,9z"/>
<g>
	<circle cx="7" cy="13" r="1"/>
	<circle cx="12" cy="13" r="1"/>
	<circle cx="17" cy="13" r="1"/>
	<circle cx="7" cy="17" r="1"/>
	<circle cx="12" cy="17" r="1"/>
	<circle cx="17" cy="17" r="1"/>
</g>
</svg>
