<?xml version="1.0" encoding="utf-8"?>
<!-- Generator: Adobe Illustrator 25.0.1, SVG Export Plug-In . SVG Version: 6.00 Build 0)  -->
<svg version="1.1" id="Layer_1" xmlns="http://www.w3.org/2000/svg" xmlns:xlink="http://www.w3.org/1999/xlink" x="0px" y="0px"
	 viewBox="0 0 24 24" enable-background="new 0 0 24 24" xml:space="preserve">
<path fill="#989898" d="M22.4457397,16.1498413c-0.8973389-0.9278564-3.0911255-2.6901855-4.3720093-3.234375
	c-0.5247803-0.2229004-1.1329346-0.1221313-1.5360718,0.2810059l-1.0571289,1.0571899
	c-0.3200684,0.3200684-0.7977295,0.4349365-1.2213135,0.2753296c-1.9852295-0.7481079-4.0947266-2.857666-4.8428955-4.8428955
	C9.2567139,9.2625122,9.371582,8.7849121,9.6916504,8.4648438l0.9393311-0.9393311
	c0.5220337-0.5220337,0.621521-1.130188,0.3978882-1.656189C10.4800415,4.5782471,8.6488037,2.4571533,7.710022,1.5559692
	c-0.6376343-0.6121216-1.6086426-0.696106-2.3909302-0.28479C4.2138672,1.8522339,3.1828613,2.6636353,2.3167725,3.6146851
	C0.8051758,5.2745972,0.5591431,8.1063232,1.7651367,10c2.645813,4.1544189,8.2351074,9.6159668,12.427002,12.2398682
	c1.8682251,1.1694336,4.3192139,0.9711914,5.9880371-0.4685059c1.0428467-0.8996582,1.9335327-1.9971924,2.5602417-3.1808472
	C23.1627808,17.7927246,23.0733032,16.7987671,22.4457397,16.1498413z"/>
<path d="M18.7480469,9.2524414c-0.2763672,0-0.5-0.2236328-0.5-0.5c0-1.6542969-1.3457031-3-3-3c-0.2763672,0-0.5-0.2236328-0.5-0.5
	s0.2236328-0.5,0.5-0.5c2.2060547,0,4,1.7944336,4,4C19.2480469,9.0288086,19.0244141,9.2524414,18.7480469,9.2524414z"/>
<path d="M22.5087891,8.7080078c-0.2763672,0-0.5-0.2236328-0.5-0.5c0-3.4282227-2.7890625-6.2172852-6.2167969-6.2172852
	c-0.2763672,0-0.5-0.2236328-0.5-0.5s0.2236328-0.5,0.5-0.5c3.9794922,0,7.2167969,3.237793,7.2167969,7.2172852
	C23.0087891,8.484375,22.7851562,8.7080078,22.5087891,8.7080078z"/>
</svg>
