<?xml version="1.0" encoding="utf-8"?>
<!-- Generator: Adobe Illustrator 25.0.1, SVG Export Plug-In . SVG Version: 6.00 Build 0)  -->
<svg version="1.1" id="Layer_1" xmlns="http://www.w3.org/2000/svg" xmlns:xlink="http://www.w3.org/1999/xlink" x="0px" y="0px"
	 viewBox="0 0 24 24" enable-background="new 0 0 24 24" xml:space="preserve">
<g>
	<path fill="#989898" d="M8.4995117,1H3.5004883C2.121582,1,1,2.121582,1,3.5004883v4.9990234C1,9.878418,2.121582,11,3.5004883,11
		h4.9990234C9.878418,11,11,9.878418,11,8.4995117V3.5004883C11,2.121582,9.878418,1,8.4995117,1z"/>
	<path fill="#989898" d="M8.4995117,13H3.5004883C2.121582,13,1,14.121582,1,15.5004883v4.9990234
		C1,21.878418,2.121582,23,3.5004883,23h4.9990234C9.878418,23,11,21.878418,11,20.4995117v-4.9990234
		C11,14.121582,9.878418,13,8.4995117,13z"/>
	<path fill="#989898" d="M20.5,1h-5C14.1210938,1,13,2.121582,13,3.5004883v4.9990234C13,9.878418,14.1210938,11,15.5,11h5
		c1.3789062,0,2.5-1.121582,2.5-2.5004883V3.5004883C23,2.121582,21.8789062,1,20.5,1z"/>
</g>
<path d="M20.5,13h-5c-1.3789062,0-2.5,1.121582-2.5,2.5004883v4.9990234C13,21.878418,14.1210938,23,15.5,23h5
	c1.3789062,0,2.5-1.121582,2.5-2.5004883v-4.9990234C23,14.121582,21.8789062,13,20.5,13z"/>
</svg>
