<?xml version="1.0" encoding="utf-8"?>
<!-- Generator: Adobe Illustrator 25.0.1, SVG Export Plug-In . SVG Version: 6.00 Build 0)  -->
<svg version="1.1" id="Layer_1" xmlns="http://www.w3.org/2000/svg" xmlns:xlink="http://www.w3.org/1999/xlink" x="0px" y="0px"
	 viewBox="0 0 24 24" enable-background="new 0 0 24 24" xml:space="preserve">
<path fill="#989898" d="M19.7763672,4.2246094c-2.5019531-2.5014648-5.9619141-3.628418-9.5004883-3.0898438
	C5.7875977,1.8178711,2.1547852,5.2758789,1.2363281,9.7397461c-0.4760742,2.3120117-0.2148438,4.6567383,0.7543945,6.7915039
	l-0.6586914,3.9526367c-0.1020508,0.6123047,0.0913086,1.215332,0.5302734,1.6538086
	c0.4384766,0.4389648,1.0395508,0.6333008,1.6538086,0.5302734L7.46875,22.0092773
	c1.4414062,0.6542969,2.9775391,0.9858398,4.5351562,0.9858398c0.75,0,1.5048828-0.0766602,2.2558594-0.2314453
	c4.4638672-0.918457,7.921875-4.5517578,8.6054688-9.0400391C23.4033203,10.1879883,22.2773438,6.7260742,19.7763672,4.2246094z"/>
<circle cx="12" cy="12" r="1"/>
<circle cx="8" cy="12" r="1"/>
<circle cx="16" cy="12" r="1"/>
<g>
</g>
</svg>
