<?xml version="1.0" encoding="utf-8"?>
<!-- Generator: Adobe Illustrator 25.0.1, SVG Export Plug-In . SVG Version: 6.00 Build 0)  -->
<svg version="1.1" id="Layer_1" xmlns="http://www.w3.org/2000/svg" xmlns:xlink="http://www.w3.org/1999/xlink" x="0px" y="0px"
	 viewBox="0 0 24 24" enable-background="new 0 0 24 24" xml:space="preserve">
<path fill="#989898" d="M22.8945312,9.2744141c0.0390625-1.5561523-1.5234375-3.6870117-3.0048828-5.1679688
	C18.4003906,2.6186523,16.2734375,1.0317383,14.75,1.1074219C11.8496094,0.9223633,8.9287109,1.027832,6.0742188,1.421875
	C3.6669922,1.753418,1.7539062,3.6665039,1.421875,6.0742188c-0.5478516,3.9672852-0.5419922,7.9931641,0.015625,11.965332
	C1.765625,20.3740234,3.6259766,22.234375,5.9609375,22.5625C7.9648438,22.8442383,9.9814453,22.9853516,12,22.9853516
	c2.0175781-0.0004883,4.0361328-0.1411133,6.0400391-0.4228516C20.375,22.234375,22.234375,20.3740234,22.5625,18.0395508
	C22.96875,15.1538086,23.0800781,12.2050781,22.8945312,9.2744141z"/>
<g>
</g>
<path d="M20.0009766,9.7470703c-0.0185547,0-0.0361328-0.0009766-0.0537109-0.0029297
	c-0.4033203-0.0429688-0.8066406-0.0922852-1.2099609-0.1494141C16.5,9.2802734,14.71875,7.4985352,14.4052734,5.262207
	c-0.0576172-0.4018555-0.1054688-0.8051758-0.1494141-1.2084961c-0.0292969-0.2744141,0.1689453-0.5209961,0.4433594-0.5507812
	C14.9707031,3.4775391,15.2207031,3.6708984,15.25,3.9462891c0.0419922,0.3916016,0.0898438,0.7841797,0.1455078,1.1762695
	c0.2558594,1.8261719,1.6552734,3.2250977,3.4804688,3.4819336C19.2695312,8.659668,19.6611328,8.7080078,20.0527344,8.75
	c0.2753906,0.0292969,0.4736328,0.2753906,0.4443359,0.550293C20.4697266,9.5566406,20.2529297,9.7470703,20.0009766,9.7470703z"/>
<path d="M12.5,10h-5C7.2236328,10,7,9.7763672,7,9.5S7.2236328,9,7.5,9h5C12.7763672,9,13,9.2236328,13,9.5S12.7763672,10,12.5,10z"
	/>
<path d="M16.5,16h-9C7.2236328,16,7,15.7763672,7,15.5S7.2236328,15,7.5,15h9c0.2763672,0,0.5,0.2236328,0.5,0.5
	S16.7763672,16,16.5,16z"/>
</svg>
