<?xml version="1.0" encoding="utf-8"?>
<!-- Generator: Adobe Illustrator 25.0.1, SVG Export Plug-In . SVG Version: 6.00 Build 0)  -->
<svg version="1.1" id="Layer_1" xmlns="http://www.w3.org/2000/svg" xmlns:xlink="http://www.w3.org/1999/xlink" x="0px" y="0px"
	 viewBox="0 0 24 24" enable-background="new 0 0 24 24" xml:space="preserve">
<g>
</g>
<path fill="#989898" d="M16.4492188,4.9892578c-0.2070312-1.8027344-1.5390625-3.2441406-3.3144531-3.5888672
	c-2.7431641-0.53125-5.5258789-0.53125-8.2700195,0C3.0893555,1.7451172,1.7578125,3.1865234,1.5512695,4.9892578
	c-0.5327148,4.6494141-0.5327148,9.3671875,0,14.0214844c0.206543,1.8027344,1.5380859,3.2441406,3.3134766,3.5888672
	C6.2368164,22.8652344,7.6181641,22.9980469,9,22.9980469c1.3813477,0,2.7631836-0.1328125,4.1347656-0.3984375
	c1.7753906-0.3447266,3.1074219-1.7861328,3.3144531-3.5888672C16.9814453,14.3583984,16.9814453,9.6416016,16.4492188,4.9892578z"
	/>
<path d="M21.8535156,12.1464844l-2.828125-2.828125c-0.1953125-0.1953125-0.5117188-0.1953125-0.7070312,0
	s-0.1953125,0.5117188,0,0.7070312L20.2929688,12H11.5c-0.2763672,0-0.5,0.2236328-0.5,0.5s0.2236328,0.5,0.5,0.5h8.7929688
	l-1.9746094,1.9746094c-0.1953125,0.1953125-0.1953125,0.5117188,0,0.7070312
	c0.0976562,0.0976562,0.2255859,0.1464844,0.3535156,0.1464844s0.2558594-0.0488281,0.3535156-0.1464844l2.828125-2.828125
	C22.0488281,12.6582031,22.0488281,12.3417969,21.8535156,12.1464844z"/>
</svg>
