<?xml version="1.0" encoding="utf-8"?>
<!-- Generator: Adobe Illustrator 25.0.1, SVG Export Plug-In . SVG Version: 6.00 Build 0)  -->
<svg version="1.1" id="Layer_1" xmlns="http://www.w3.org/2000/svg" xmlns:xlink="http://www.w3.org/1999/xlink" x="0px" y="0px"
	 viewBox="0 0 24 24" enable-background="new 0 0 24 24" xml:space="preserve">
<g>
</g>
<path fill="#989898" d="M19.5,17h-0.9383545c0.1584473-1.2316895,0.4946289-4.2756348,0.4901123-7.921875
	C19.0470581,5.371521,16.1498413,2.3328247,12.5,2.0750732V1.5C12.5,1.2236328,12.2763672,1,12,1s-0.5,0.2236328-0.5,0.5v0.5750732
	C7.8501587,2.3328247,4.9529419,5.371521,4.9482422,9.078125C4.9437256,12.7243652,5.2799683,15.7683105,5.4384155,17H4.5
	C4.2236328,17,4,17.2236328,4,17.5S4.2236328,18,4.5,18h15c0.2763672,0,0.5-0.2236328,0.5-0.5S19.7763672,17,19.5,17z"/>
<path d="M14.5,19h-5C9.2236328,19,9,19.2236328,9,19.5V20c0,1.6542969,1.3457031,3,3,3s3-1.3457031,3-3v-0.5
	C15,19.2236328,14.7763672,19,14.5,19z"/>
</svg>
