<?xml version="1.0" encoding="utf-8"?>
<!-- Generator: Adobe Illustrator 25.0.1, SVG Export Plug-In . SVG Version: 6.00 Build 0)  -->
<svg version="1.1" id="Layer_1" xmlns="http://www.w3.org/2000/svg" xmlns:xlink="http://www.w3.org/1999/xlink" x="0px" y="0px"
	 viewBox="0 0 24 24" enable-background="new 0 0 24 24" xml:space="preserve">
<circle fill="#989898" cx="12" cy="12" r="11"/>
<g>
</g>
<path d="M15.4213867,10.5039062c-1.4648438-1.1855469-2.8706055-2.0380859-4.296875-2.6064453
	c-0.5615234-0.2216797-1.1816406-0.1777344-1.7006836,0.1279297C8.9082031,8.328125,8.5683594,8.8417969,8.4912109,9.4355469
	c-0.2216797,1.7011719-0.2216797,3.4277344,0,5.1289062c0.0771484,0.59375,0.4169922,1.1074219,0.9326172,1.4101562
	c0.3022461,0.1777344,0.6386719,0.2675781,0.9775391,0.2675781c0.2431641,0,0.4882812-0.046875,0.7226562-0.1396484
	c1.4267578-0.5683594,2.8325195-1.4208984,4.2973633-2.6064453C15.8740234,13.1298828,16.1337891,12.5849609,16.1337891,12
	S15.8740234,10.8701172,15.4213867,10.5039062z"/>
</svg>
