<?xml version="1.0" encoding="utf-8"?>
<!-- Generator: Adobe Illustrator 25.0.1, SVG Export Plug-In . SVG Version: 6.00 Build 0)  -->
<svg version="1.1" id="Layer_1" xmlns="http://www.w3.org/2000/svg" xmlns:xlink="http://www.w3.org/1999/xlink" x="0px" y="0px"
	 viewBox="0 0 24 24" enable-background="new 0 0 24 24" xml:space="preserve">
<path d="M22.5,23c-0.1279297,0-0.2558594-0.0488281-0.3535156-0.1464844l-4.6699219-4.6699219
	c-0.1953125-0.1953125-0.1953125-0.5117188,0-0.7070312s0.5117188-0.1953125,0.7070312,0l4.6699219,4.6699219
	c0.1953125,0.1953125,0.1953125,0.5117188,0,0.7070312C22.7558594,22.9511719,22.6279297,23,22.5,23z"/>
<g>
</g>
<path fill="#989898" d="M10.9501953,1C5.4638672,1,1,5.4638672,1,10.9501953s4.4638672,9.9501953,9.9501953,9.9501953
	s9.949707-4.4638672,9.949707-9.9501953S16.4365234,1,10.9501953,1z"/>
<path d="M17.4951172,11.4306641c-0.2763672,0-0.5-0.2236328-0.5-0.5c0-3.2685547-2.6591797-5.9277344-5.9272461-5.9277344
	c-0.2763672,0-0.5-0.2236328-0.5-0.5s0.2236328-0.5,0.5-0.5c3.8198242,0,6.9272461,3.1074219,6.9272461,6.9277344
	C17.9951172,11.2070312,17.7714844,11.4306641,17.4951172,11.4306641z"/>
</svg>
