<?xml version="1.0" encoding="utf-8"?>
<!-- Generator: Adobe Illustrator 25.0.1, SVG Export Plug-In . SVG Version: 6.00 Build 0)  -->
<svg version="1.1" id="Layer_1" xmlns="http://www.w3.org/2000/svg" xmlns:xlink="http://www.w3.org/1999/xlink" x="0px" y="0px"
	 viewBox="0 0 24 24" enable-background="new 0 0 24 24" xml:space="preserve">
<path fill="#989898" d="M22.8710938,1.1289062c-0.1181641-0.1181641-0.2880859-0.171875-0.4511719-0.1367188
	C15.7832031,2.3193359,9.0556641,4.7753906,2.421875,8.2910156C1.4726562,8.7939453,0.9375,9.7695312,1.0263672,10.8369141
	c0.0878906,1.0546875,0.7675781,1.9179688,1.7734375,2.2539062l6.0820312,2.0273438l2.0273438,6.0820312
	c0.3359375,1.0058594,1.1992188,1.6855469,2.2539062,1.7734375c0.0771484,0.0058594,0.1533203,0.0097656,0.2294922,0.0097656
	c0.9755859,0,1.8496094-0.5244141,2.3164062-1.4052734c3.515625-6.6328125,5.9716797-13.3613281,7.2988281-19.9980469
	C23.0410156,1.4169922,22.9892578,1.2470703,22.8710938,1.1289062z"/>
<g>
</g>
<path d="M11,13.5c-0.1279297,0-0.2558594-0.0488281-0.3535156-0.1464844c-0.1953125-0.1953125-0.1953125-0.5117188,0-0.7070312l8-8
	c0.1953125-0.1953125,0.5117188-0.1953125,0.7070312,0s0.1953125,0.5117188,0,0.7070312l-8,8
	C11.2558594,13.4511719,11.1279297,13.5,11,13.5z"/>
</svg>
