<?xml version="1.0" encoding="utf-8"?>
<!-- Generator: Adobe Illustrator 25.0.1, SVG Export Plug-In . SVG Version: 6.00 Build 0)  -->
<svg version="1.1" id="Layer_1" xmlns="http://www.w3.org/2000/svg" xmlns:xlink="http://www.w3.org/1999/xlink" x="0px" y="0px"
	 viewBox="0 0 24 24" enable-background="new 0 0 24 24" xml:space="preserve">
<g>
</g>
<path fill="#989898" d="M22.0087891,13.5644531L21.0625,13.0175781C20.6943359,12.8046875,20.4746094,12.4248047,20.4746094,12
	s0.2197266-0.8046875,0.5878906-1.0175781l0.9462891-0.546875c0.1445312-0.0830078,0.2382812-0.2333984,0.2490234-0.4003906
	c0.1757812-2.7275391-0.9775391-4.7246094-3.4267578-5.9365234c-0.1503906-0.0732422-0.3271484-0.0693359-0.4716797,0.015625
	l-0.9472656,0.546875c-0.3681641,0.2119141-0.8066406,0.2109375-1.1748047,0
	c-0.3671875-0.2128906-0.5869141-0.5927734-0.5869141-1.0175781v-1.09375c0-0.1669922-0.0839844-0.3232422-0.2226562-0.4160156
	c-2.2753906-1.515625-4.5800781-1.515625-6.8554688,0C8.4335938,2.2265625,8.3496094,2.3828125,8.3496094,2.5498047v1.09375
	c0,0.4248047-0.2197266,0.8046875-0.5869141,1.0175781c-0.3681641,0.2109375-0.8066406,0.2119141-1.1748047,0L5.640625,4.1142578
	c-0.1445312-0.0849609-0.3203125-0.0888672-0.4716797-0.015625c-2.4492188,1.2119141-3.6025391,3.2089844-3.4267578,5.9365234
	c0.0107422,0.1669922,0.1044922,0.3173828,0.2490234,0.4003906L2.9375,10.9824219
	C3.3056641,11.1953125,3.5253906,11.5751953,3.5253906,12S3.3056641,12.8046875,2.9375,13.0175781l-0.9462891,0.546875
	c-0.1445312,0.0830078-0.2382812,0.2333984-0.2490234,0.4003906c-0.1757812,2.7275391,0.9775391,4.7246094,3.4267578,5.9365234
	c0.1513672,0.0732422,0.3271484,0.0683594,0.4716797-0.015625l0.9472656-0.546875
	c0.3681641-0.2109375,0.8066406-0.2099609,1.1748047,0c0.3671875,0.2128906,0.5869141,0.5927734,0.5869141,1.0175781v1.09375
	c0,0.1669922,0.0839844,0.3232422,0.2226562,0.4160156C9.7099609,22.6240234,10.8544922,23.0029297,12,23.0029297
	s2.2900391-0.3789062,3.4277344-1.1367188c0.1386719-0.0927734,0.2226562-0.2490234,0.2226562-0.4160156v-1.09375
	c0-0.4248047,0.2197266-0.8046875,0.5869141-1.0175781c0.3681641-0.2099609,0.8066406-0.2109375,1.1748047,0l0.9472656,0.546875
	c0.1445312,0.0839844,0.3212891,0.0888672,0.4716797,0.015625c2.4492188-1.2119141,3.6025391-3.2089844,3.4267578-5.9365234
	C22.2470703,13.7978516,22.1533203,13.6474609,22.0087891,13.5644531z"/>
<circle cx="12" cy="12" r="4"/>
</svg>
