<?xml version="1.0" encoding="utf-8"?>
<!-- Generator: Adobe Illustrator 25.0.1, SVG Export Plug-In . SVG Version: 6.00 Build 0)  -->
<svg version="1.1" id="Layer_1" xmlns="http://www.w3.org/2000/svg" xmlns:xlink="http://www.w3.org/1999/xlink" x="0px" y="0px"
	 viewBox="0 0 24 24" enable-background="new 0 0 24 24" xml:space="preserve">
<g>
</g>
<path fill="#989898" d="M12.7607422,2.8515625C12.5756836,1.7783203,11.6416016,1,10.5400391,1H9.1640625
	C8.1303711,1,7.2138672,1.6201172,6.8295898,2.5800781L5.3310547,6.3271484L3.222168,6.8535156
	c-1.3081055,0.328125-2.2216797,1.4990234-2.2216797,2.8466797v4.5996094c0,1.3476562,0.9135742,2.5185547,2.222168,2.8466797
	l2.1083984,0.5263672l1.4985352,3.7470703C7.2138672,22.3798828,8.1303711,23,9.1640625,23h1.3759766
	c1.1015625,0,2.0356445-0.7783203,2.2207031-1.8515625C13.8095703,15.078125,13.8095703,8.921875,12.7607422,2.8515625z"/>
<path d="M17.2207031,15.0986328c-0.1279297,0-0.2558594-0.0488281-0.3535156-0.1464844
	c-0.1953125-0.1953125-0.1953125-0.5117188,0-0.7070312c1.2382812-1.2382812,1.2382812-3.2519531,0-4.4902344
	c-0.1953125-0.1953125-0.1953125-0.5117188,0-0.7070312s0.5117188-0.1953125,0.7070312,0
	C18.3632812,9.8369141,18.7978516,10.8847656,18.7978516,12s-0.4345703,2.1630859-1.2236328,2.9521484
	C17.4765625,15.0498047,17.3486328,15.0986328,17.2207031,15.0986328z"/>
<path d="M20.4169922,17.4873047c-0.1279297,0-0.2558594-0.0488281-0.3535156-0.1464844
	c-0.1953125-0.1953125-0.1953125-0.5117188,0-0.7070312C21.3017578,15.3964844,21.9833984,13.7509766,21.9833984,12
	s-0.6816406-3.3964844-1.9199219-4.6337891c-0.1953125-0.1953125-0.1953125-0.5117188,0-0.7070312s0.5117188-0.1953125,0.7070312,0
	C22.1972656,8.0849609,22.9833984,9.9824219,22.9833984,12s-0.7861328,3.9150391-2.2128906,5.3408203
	C20.6728516,17.4384766,20.5449219,17.4873047,20.4169922,17.4873047z"/>
</svg>
