<svg xmlns="http://www.w3.org/2000/svg" viewBox="0 0 16 16"><path d="M13.964,5.894H2.036a1.043,1.043,0,0,1-.748-.314,1.057,1.057,0,0,1-.305-.759C1.036.98,2.1.98,8,.98s6.964,0,7.017,3.841a1.057,1.057,0,0,1-.3.759A1.043,1.043,0,0,1,13.964,5.894Z"/><path d="M2.033,6.6V9.579c0,5.288.167,5.441,5.967,5.441s5.967-.153,5.967-5.441V6.6Zm8.775,2.457a1.053,1.053,0,0,1-1.053,1.052H6.245A1.053,1.053,0,0,1,5.192,9.053V8.7a.351.351,0,0,1,.7,0v.351a.351.351,0,0,0,.351.351h3.51a.351.351,0,0,0,.351-.351V8.7a.351.351,0,0,1,.7,0Z"/></svg>