<?xml version="1.0" encoding="utf-8"?>
<!-- Generator: Adobe Illustrator 25.0.1, SVG Export Plug-In . SVG Version: 6.00 Build 0)  -->
<svg version="1.1" id="Layer_1" xmlns="http://www.w3.org/2000/svg" xmlns:xlink="http://www.w3.org/1999/xlink" x="0px" y="0px"
	 viewBox="0 0 24 24" enable-background="new 0 0 24 24" xml:space="preserve">
<g>
</g>
<path d="M22.6118164,7.0444336c-0.3369141-2.4003906-2.2158203-4.296875-4.5688477-4.6113281
	C18.0286865,2.4312134,18.0142822,2.4307251,18,2.428833V4c0,0.2763672-0.2236328,0.5-0.5,0.5S17,4.2763672,17,4V2.3290405V1.5
	C17,1.2236328,16.7763672,1,16.5,1S16,1.2236328,16,1.5v0.746582c-2.6625366-0.2342529-5.3374634-0.2342529-8,0V1.5
	C8,1.2236328,7.7763672,1,7.5,1S7,1.2236328,7,1.5v0.8290405V4c0,0.2763672-0.2236328,0.5-0.5,0.5S6,4.2763672,6,4V2.428833
	C5.9857178,2.4307251,5.9713135,2.4312134,5.9570312,2.4331055C3.6040039,2.7475586,1.7250977,4.644043,1.3881836,7.0444336
	c-0.5083008,3.6201172-0.5083008,7.2910156,0,10.9111328c0.3369141,2.4003906,2.2158203,4.296875,4.5688477,4.6113281
	C7.9619141,22.8344727,9.980957,22.96875,12,22.96875s4.0380859-0.1342773,6.0429688-0.4018555
	c2.3530273-0.3144531,4.2319336-2.2109375,4.5688477-4.6113281C23.1201172,14.3354492,23.1201172,10.6645508,22.6118164,7.0444336z
	 M7,18c-0.5523071,0-1-0.4477539-1-1c0-0.5523071,0.4476929-1,1-1s1,0.4476929,1,1C8,17.5522461,7.5523071,18,7,18z M7,14
	c-0.5523071,0-1-0.4477539-1-1c0-0.5523071,0.4476929-1,1-1s1,0.4476929,1,1C8,13.5522461,7.5523071,14,7,14z M12,18
	c-0.5523071,0-1-0.4477539-1-1c0-0.5523071,0.4476929-1,1-1s1,0.4476929,1,1C13,17.5522461,12.5523071,18,12,18z M12,14
	c-0.5523071,0-1-0.4477539-1-1c0-0.5523071,0.4476929-1,1-1s1,0.4476929,1,1C13,13.5522461,12.5523071,14,12,14z M17,18
	c-0.5523071,0-1-0.4477539-1-1c0-0.5523071,0.4476929-1,1-1s1,0.4476929,1,1C18,17.5522461,17.5523071,18,17,18z M17,14
	c-0.5523071,0-1-0.4477539-1-1c0-0.5523071,0.4476929-1,1-1s1,0.4476929,1,1C18,13.5522461,17.5523071,14,17,14z M19,9H5
	C4.7236328,9,4.5,8.7763672,4.5,8.5S4.7236328,8,5,8h14c0.2763672,0,0.5,0.2236328,0.5,0.5S19.2763672,9,19,9z"/>
</svg>
