<?xml version="1.0" encoding="utf-8"?>
<!-- Generator: Adobe Illustrator 25.0.1, SVG Export Plug-In . SVG Version: 6.00 Build 0)  -->
<svg version="1.1" id="Layer_1" xmlns="http://www.w3.org/2000/svg" xmlns:xlink="http://www.w3.org/1999/xlink" x="0px" y="0px"
	 viewBox="0 0 24 24" enable-background="new 0 0 24 24" xml:space="preserve">
<g>
</g>
<g>
	<circle cx="12" cy="13" r="4"/>
	<path d="M22.4345703,8.371582c-0.3071289-1.3388672-1.4003906-2.3447266-2.7841797-2.5620117
		c-0.6728516-0.1064453-1.3457031-0.1933594-2.019043-0.2695312l-0.1186523-1.0581055
		c-0.0874023-0.7758789-0.6425781-1.4208984-1.3813477-1.6049805c-2.7631836-0.6875-5.5454102-0.6879883-8.2695312-0.0014648
		C7.1274414,3.0600586,6.5756836,3.7041016,6.487793,4.4785156L6.3686523,5.5400391
		C5.6953125,5.6162109,5.0224609,5.703125,4.3500977,5.809082c-1.3637695,0.2148438-2.4829102,1.2446289-2.784668,2.5625
		c-0.7314453,3.1879883-0.7197266,6.6381836,0.0351562,10.2548828c0.2929688,1.4038086,1.4697266,2.4975586,2.9282227,2.722168
		C7.0078125,21.7294922,9.5039062,21.9204102,12,21.9204102s4.9921875-0.190918,7.4711914-0.5717773
		c1.4584961-0.2246094,2.6352539-1.3183594,2.9282227-2.722168C23.1542969,15.0097656,23.1660156,11.5595703,22.4345703,8.371582z
		 M12,18c-2.7568359,0-5-2.2431641-5-5s2.2431641-5,5-5s5,2.2431641,5,5S14.7568359,18,12,18z"/>
</g>
</svg>
