<?xml version="1.0" encoding="utf-8"?>
<!-- Generator: Adobe Illustrator 25.0.1, SVG Export Plug-In . SVG Version: 6.00 Build 0)  -->
<svg version="1.1" id="Layer_1" xmlns="http://www.w3.org/2000/svg" xmlns:xlink="http://www.w3.org/1999/xlink" x="0px" y="0px"
	 viewBox="0 0 24 24" enable-background="new 0 0 24 24" xml:space="preserve">
<path d="M22.5664062,6.081543c-0.3310547-2.4047852-2.2421875-4.315918-4.6474609-4.6479492
	c-3.9277344-0.5419922-7.9101562-0.5419922-11.8378906,0C3.6757812,1.765625,1.7646484,3.6767578,1.4335938,6.081543
	c-0.546875,3.9628906-0.5410156,7.9833984,0.015625,11.9511719c0.328125,2.3320312,2.1865234,4.1899414,4.5185547,4.5175781
	C7.96875,22.831543,9.984375,22.9726562,12,22.9726562s4.03125-0.1411133,6.0322266-0.4223633
	c2.3320312-0.3276367,4.1904297-2.1855469,4.5185547-4.5180664C23.1074219,14.0649414,23.1132812,10.0444336,22.5664062,6.081543z
	 M8,17.5C8,17.7763672,7.7763672,18,7.5,18S7,17.7763672,7,17.5v-4C7,13.2236328,7.2236328,13,7.5,13S8,13.2236328,8,13.5V17.5z
	 M13,17.5c0,0.2763672-0.2236328,0.5-0.5,0.5S12,17.7763672,12,17.5v-10C12,7.2236328,12.2236328,7,12.5,7S13,7.2236328,13,7.5V17.5
	z M18,17.5c0,0.2763672-0.2236328,0.5-0.5,0.5S17,17.7763672,17,17.5v-7c0-0.2763672,0.2236328-0.5,0.5-0.5s0.5,0.2236328,0.5,0.5
	V17.5z"/>
</svg>
