<?xml version="1.0" encoding="utf-8"?>
<!-- Generator: Adobe Illustrator 25.0.1, SVG Export Plug-In . SVG Version: 6.00 Build 0)  -->
<svg version="1.1" id="Layer_1" xmlns="http://www.w3.org/2000/svg" xmlns:xlink="http://www.w3.org/1999/xlink" x="0px" y="0px"
	 viewBox="0 0 24 24" enable-background="new 0 0 24 24" xml:space="preserve">
<g>
</g>
<path d="M22.7490234,16.4970703c-1.1669922-3.3686523-3.3330078-8.4545898-7.0205078-13.5551758
	C14.8476562,1.7241211,13.4882812,1.0253906,12,1.0253906S9.1523438,1.7241211,8.2714844,2.9418945
	c-3.6875,5.1005859-5.8535156,10.1865234-7.0205078,13.5551758c-0.4501953,1.3022461-0.2929688,2.7211914,0.4326172,3.8930664
	c0.7285156,1.1757812,1.9326172,1.9516602,3.3046875,2.1298828C7.3144531,22.8212891,9.6572266,22.972168,12,22.972168
	s4.6855469-0.1508789,7.0117188-0.4521484c1.3720703-0.1782227,2.5761719-0.9541016,3.3046875-2.1298828
	C23.0419922,19.2182617,23.1992188,17.7993164,22.7490234,16.4970703z M11.5,8.5C11.5,8.2236328,11.7236328,8,12,8
	s0.5,0.2236328,0.5,0.5v5c0,0.2763672-0.2236328,0.5-0.5,0.5s-0.5-0.2236328-0.5-0.5V8.5z M12,18c-0.5523071,0-1-0.4477539-1-1
	c0-0.5523071,0.4476929-1,1-1s1,0.4476929,1,1C13,17.5522461,12.5523071,18,12,18z"/>
</svg>
