<?xml version="1.0" encoding="utf-8"?>
<!-- Generator: Adobe Illustrator 25.0.1, SVG Export Plug-In . SVG Version: 6.00 Build 0)  -->
<svg version="1.1" id="Layer_1" xmlns="http://www.w3.org/2000/svg" xmlns:xlink="http://www.w3.org/1999/xlink" x="0px" y="0px"
	 viewBox="0 0 24 24" enable-background="new 0 0 24 24" xml:space="preserve">
<path d="M19.5,5h-3V3.793457c0-1.0996094-0.7177734-2.0800781-1.7456055-2.3852539
	c-1.8276367-0.5419922-3.6806641-0.5419922-5.5083008,0C8.2177734,1.7133789,7.5,2.6938477,7.5,3.793457V5h-3
	C4.2236328,5,4,5.2236328,4,5.5S4.2236328,6,4.5,6h0.4536133v13.2714844c0,1.7167969,1.2470703,3.1689453,2.9648438,3.4516602
	c1.1391602,0.1879883,2.4736328,0.2817383,3.8081055,0.2817383s2.6694336-0.09375,3.8085938-0.2817383
	c1.6713867-0.2753906,3.4760742-1.6723633,3.4760742-3.4492188L19.0107422,6H19.5C19.7763672,6,20,5.7763672,20,5.5
	S19.7763672,5,19.5,5z M8.5,3.793457c0-0.6601562,0.4238281-1.246582,1.0307617-1.4262695
	c1.6376953-0.4873047,3.300293-0.4873047,4.9389648,0C15.0761719,2.546875,15.5,3.1333008,15.5,3.793457V5h-7V3.793457z"/>
</svg>
