<?xml version="1.0" encoding="utf-8"?>
<!-- Generator: Adobe Illustrator 25.0.1, SVG Export Plug-In . SVG Version: 6.00 Build 0)  -->
<svg version="1.1" id="Layer_1" xmlns="http://www.w3.org/2000/svg" xmlns:xlink="http://www.w3.org/1999/xlink" x="0px" y="0px"
	 viewBox="0 0 24 24" enable-background="new 0 0 24 24" xml:space="preserve">
<g>
</g>
<path d="M22.5,23h-9c-0.2763672,0-0.5-0.2236328-0.5-0.5s0.2236328-0.5,0.5-0.5h9c0.2763672,0,0.5,0.2236328,0.5,0.5
	S22.7763672,23,22.5,23z"/>
<path d="M21.972168,3.4296875c-0.418457-0.5068359-0.890625-0.9785156-1.4023438-1.4023438
	c-1.7163086-1.4179688-4.3227539-1.2695312-5.9316406,0.3378906l-1.5923462,1.5927124l4.6885376,4.6885376
	c0.1953125,0.1953125,0.1953125,0.5117188,0,0.7070312C17.6367188,9.4511719,17.5087891,9.5,17.3808594,9.5
	S17.125,9.4511719,17.0273438,9.3535156l-4.6884766-4.6884766L2.2509766,14.7529297C1.4443359,15.5595703,1,16.6318359,1,17.7734375
	V22.5C1,22.7763672,1.2236328,23,1.5,23h4.7270508c1.140625,0,2.2133789-0.4443359,3.0205078-1.2509766l10.440918-10.4414062
	l1.9458008-1.9462891C23.2431641,7.7529297,23.3916016,5.1474609,21.972168,3.4296875z"/>
</svg>
