<?xml version="1.0" encoding="utf-8"?>
<!-- Generator: Adobe Illustrator 25.0.1, SVG Export Plug-In . SVG Version: 6.00 Build 0)  -->
<svg version="1.1" id="Layer_1" xmlns="http://www.w3.org/2000/svg" xmlns:xlink="http://www.w3.org/1999/xlink" x="0px" y="0px"
	 viewBox="0 0 24 24" enable-background="new 0 0 24 24" xml:space="preserve">
<g>
</g>
<path d="M21.4487305,4.9892578c-0.206543-1.8027344-1.5380859-3.2441406-3.3134766-3.5888672
	c-2.7436523-0.53125-5.5258789-0.53125-8.2705078,0C8.0893555,1.7451172,6.7578125,3.1865234,6.5512695,4.9892578
	C6.2849731,7.3157959,6.1518555,9.6582031,6.1517944,12h5.1410522l-1.9749756-1.9746094
	c-0.1953125-0.1953125-0.1953125-0.5117188,0-0.7070312s0.5117188-0.1953125,0.7070312,0l2.8286133,2.828125
	C12.9472656,12.2402344,13,12.3671875,13,12.5s-0.0527344,0.2597656-0.1464844,0.3535156l-2.8286133,2.828125
	c-0.0976562,0.0976562-0.2255859,0.1464844-0.3535156,0.1464844s-0.2558594-0.0488281-0.3535156-0.1464844
	c-0.1953125-0.1953125-0.1953125-0.5117188,0-0.7070312L11.2928467,13H2.5C2.2236328,13,2,13.2236328,2,13.5S2.2236328,14,2.5,14
	h3.7173462c0.0494995,1.6746826,0.1433716,3.3476562,0.3339233,5.0107422
	c0.206543,1.8027344,1.5380859,3.2441406,3.3134766,3.5888672c1.3720703,0.265625,2.753418,0.3984375,4.1352539,0.3984375
	s2.7631836-0.1328125,4.1352539-0.3984375c1.7753906-0.3447266,3.1069336-1.7861328,3.3134766-3.5888672
	C21.9814453,14.3613281,21.9814453,9.6435547,21.4487305,4.9892578z"/>
</svg>
