<?xml version="1.0" encoding="utf-8"?>
<!-- Generator: Adobe Illustrator 25.0.1, SVG Export Plug-In . SVG Version: 6.00 Build 0)  -->
<svg version="1.1" id="Layer_1" xmlns="http://www.w3.org/2000/svg" xmlns:xlink="http://www.w3.org/1999/xlink" x="0px" y="0px"
	 viewBox="0 0 24 24" enable-background="new 0 0 24 24" xml:space="preserve">
<g>
</g>
<g>
	<path d="M12,11.0322266c2.7666016,0,5.0166016-2.25,5.0166016-5.015625C17.0166016,3.25,14.7666016,1,12,1
		S6.9833984,3.25,6.9833984,6.0166016C6.9833984,8.7822266,9.2333984,11.0322266,12,11.0322266z"/>
	<path d="M19.2958984,15.0390625c-0.5957031-0.8925781-1.4970703-1.4746094-2.5380859-1.6376953
		c-3.1582031-0.4941406-6.3623047-0.4941406-9.5205078,0c-1.0390625,0.1630859-1.9394531,0.7441406-2.5341797,1.6357422
		c-0.6123047,0.9179688-0.8125,2.0644531-0.5283203,3.2324219c0.5800781,2.3828125,2.4980469,4.1533203,4.8857422,4.5107422
		c0.9746094,0.1464844,1.9560547,0.21875,2.9375,0.21875c0.9472656,0,1.8935547-0.0673828,2.8339844-0.203125
		c2.4462891-0.3535156,4.4140625-2.1699219,5.0126953-4.6279297C20.1064453,17.0947266,19.90625,15.9541016,19.2958984,15.0390625z"
		/>
</g>
</svg>
