<?xml version="1.0" encoding="utf-8"?>
<!-- Generator: Adobe Illustrator 25.0.1, SVG Export Plug-In . SVG Version: 6.00 Build 0)  -->
<svg version="1.1" id="Layer_1" xmlns="http://www.w3.org/2000/svg" xmlns:xlink="http://www.w3.org/1999/xlink" x="0px" y="0px"
	 viewBox="0 0 24 24" enable-background="new 0 0 24 24" xml:space="preserve">
<g>
</g>
<g>
	<path d="M10.5400391,1H9.1640625C8.1303711,1,7.2138672,1.6201172,6.8295898,2.5800781L5.3310547,6.3271484L3.222168,6.8535156
		c-1.3081055,0.328125-2.2216797,1.4990234-2.2216797,2.8466797v4.5996094c0,1.3476562,0.9135742,2.5185547,2.222168,2.8466797
		l2.1083984,0.5263672l1.4985352,3.7470703C7.2138672,22.3798828,8.1303711,23,9.1640625,23h1.3759766
		c1.1015625,0,2.0356445-0.7783203,2.2207031-1.8515625c1.0488281-6.0703125,1.0488281-12.2265625,0-18.296875
		C12.5756836,1.7783203,11.6416016,1,10.5400391,1z"/>
	<path d="M16.8671875,9.0478516c-0.1953125,0.1953125-0.1953125,0.5117188,0,0.7070312
		c1.2382812,1.2382812,1.2382812,3.2519531,0,4.4902344c-0.1953125,0.1953125-0.1953125,0.5117188,0,0.7070312
		c0.0976562,0.0976562,0.2255859,0.1464844,0.3535156,0.1464844s0.2558594-0.0488281,0.3535156-0.1464844
		C18.3632812,14.1630859,18.7978516,13.1152344,18.7978516,12s-0.4345703-2.1630859-1.2236328-2.9521484
		C17.3789062,8.8525391,17.0625,8.8525391,16.8671875,9.0478516z"/>
	<path d="M20.7705078,6.6591797c-0.1953125-0.1953125-0.5117188-0.1953125-0.7070312,0s-0.1953125,0.5117188,0,0.7070312
		C21.3017578,8.6035156,21.9833984,10.2490234,21.9833984,12s-0.6816406,3.3964844-1.9199219,4.6337891
		c-0.1953125,0.1953125-0.1953125,0.5117188,0,0.7070312c0.0976562,0.0976562,0.2255859,0.1464844,0.3535156,0.1464844
		s0.2558594-0.0488281,0.3535156-0.1464844C22.1972656,15.9150391,22.9833984,14.0175781,22.9833984,12
		S22.1972656,8.0849609,20.7705078,6.6591797z"/>
</g>
</svg>
